<svg width="56" height="54" viewBox="0 0 56 54" fill="none" xmlns="http://www.w3.org/2000/svg">
<rect width="55.5" height="54" rx="27" fill="#0994DC"/>
<path d="M23.503 20.9999C23.503 20.2051 23.8188 19.4428 24.3808 18.8807C24.9428 18.3187 25.7051 18.0029 26.5 18.0029C27.2949 18.0029 28.0572 18.3187 28.6192 18.8807C29.1812 19.4428 29.497 20.2051 29.497 20.9999C29.497 21.7948 29.1812 22.5571 28.6192 23.1191C28.0572 23.6812 27.2949 23.9969 26.5 23.9969C25.7051 23.9969 24.9428 23.6812 24.3808 23.1191C23.8188 22.5571 23.503 21.7948 23.503 20.9999ZM26.5 19.5029C26.3034 19.5029 26.1087 19.5417 25.9271 19.6169C25.7455 19.6921 25.5805 19.8024 25.4415 19.9414C25.3025 20.0804 25.1922 20.2454 25.117 20.4271C25.0417 20.6087 25.003 20.8033 25.003 20.9999C25.003 21.1965 25.0417 21.3912 25.117 21.5728C25.1922 21.7544 25.3025 21.9195 25.4415 22.0585C25.5805 22.1975 25.7455 22.3077 25.9271 22.383C26.1087 22.4582 26.3034 22.4969 26.5 22.4969C26.897 22.4969 27.2778 22.3392 27.5585 22.0585C27.8393 21.7777 27.997 21.397 27.997 20.9999C27.997 20.6029 27.8393 20.2221 27.5585 19.9414C27.2778 19.6606 26.897 19.5029 26.5 19.5029ZM31 21.7499C31 21.4545 31.0582 21.1619 31.1713 20.8889C31.2843 20.6159 31.4501 20.3679 31.659 20.1589C31.8679 19.95 32.116 19.7843 32.389 19.6712C32.6619 19.5581 32.9545 19.4999 33.25 19.4999C33.5455 19.4999 33.8381 19.5581 34.111 19.6712C34.384 19.7843 34.6321 19.95 34.841 20.1589C35.0499 20.3679 35.2157 20.6159 35.3287 20.8889C35.4418 21.1619 35.5 21.4545 35.5 21.7499C35.5 22.3467 35.2629 22.919 34.841 23.3409C34.419 23.7629 33.8467 23.9999 33.25 23.9999C32.6533 23.9999 32.081 23.7629 31.659 23.3409C31.2371 22.919 31 22.3467 31 21.7499ZM33.25 20.9999C33.0511 20.9999 32.8603 21.0789 32.7197 21.2196C32.579 21.3603 32.5 21.551 32.5 21.7499C32.5 21.9488 32.579 22.1396 32.7197 22.2803C32.8603 22.4209 33.0511 22.4999 33.25 22.4999C33.4489 22.4999 33.6397 22.4209 33.7803 22.2803C33.921 22.1396 34 21.9488 34 21.7499C34 21.551 33.921 21.3603 33.7803 21.2196C33.6397 21.0789 33.4489 20.9999 33.25 20.9999ZM19.75 19.4999C19.1533 19.4999 18.581 19.737 18.159 20.1589C17.7371 20.5809 17.5 21.1532 17.5 21.7499C17.5 22.3467 17.7371 22.919 18.159 23.3409C18.581 23.7629 19.1533 23.9999 19.75 23.9999C20.3467 23.9999 20.919 23.7629 21.341 23.3409C21.7629 22.919 22 22.3467 22 21.7499C22 21.1532 21.7629 20.5809 21.341 20.1589C20.919 19.737 20.3467 19.4999 19.75 19.4999ZM19 21.7499C19 21.551 19.079 21.3603 19.2197 21.2196C19.3603 21.0789 19.5511 20.9999 19.75 20.9999C19.9489 20.9999 20.1397 21.0789 20.2803 21.2196C20.421 21.3603 20.5 21.551 20.5 21.7499C20.5 21.9488 20.421 22.1396 20.2803 22.2803C20.1397 22.4209 19.9489 22.4999 19.75 22.4999C19.5511 22.4999 19.3603 22.4209 19.2197 22.2803C19.079 22.1396 19 21.9488 19 21.7499ZM20.902 25.4999C20.6387 25.956 20.5 26.4733 20.5 26.9999H17.5V30.7499C17.4999 31.123 17.5925 31.4903 17.7697 31.8187C17.9468 32.1471 18.2028 32.4263 18.5146 32.6312C18.8264 32.836 19.1843 32.9601 19.556 32.9923C19.9277 33.0245 20.3016 32.9637 20.644 32.8154C20.755 33.3119 20.929 33.7859 21.154 34.2284C20.5847 34.4583 19.9677 34.5449 19.3571 34.4805C18.7465 34.4162 18.1611 34.2029 17.6522 33.8595C17.1433 33.516 16.7265 33.0529 16.4384 32.5107C16.1503 31.9685 15.9998 31.3639 16 30.7499V26.9999C16 26.6021 16.158 26.2206 16.4393 25.9393C16.7206 25.658 17.1022 25.4999 17.5 25.4999H20.902ZM31.846 34.2284C32.4153 34.4583 33.0323 34.5449 33.6429 34.4805C34.2535 34.4162 34.8389 34.2029 35.3478 33.8595C35.8567 33.516 36.2735 33.0529 36.5616 32.5107C36.8497 31.9685 37.0002 31.3639 37 30.7499V26.9999C37 26.6021 36.842 26.2206 36.5607 25.9393C36.2794 25.658 35.8978 25.4999 35.5 25.4999H32.098C32.353 25.9409 32.5 26.4524 32.5 26.9999H35.5V30.7499C35.5001 31.123 35.4075 31.4903 35.2304 31.8187C35.0532 32.1471 34.7973 32.4263 34.4854 32.6312C34.1736 32.836 33.8157 32.9601 33.444 32.9923C33.0723 33.0245 32.6984 32.9637 32.356 32.8154C32.242 33.3134 32.072 33.7844 31.846 34.2284ZM23.5 25.4984C23.1022 25.4984 22.7206 25.6565 22.4393 25.9378C22.158 26.2191 22 26.6006 22 26.9984V31.4999C22 32.6934 22.4741 33.838 23.318 34.6819C24.1619 35.5258 25.3065 35.9999 26.5 35.9999C27.6935 35.9999 28.8381 35.5258 29.682 34.6819C30.5259 33.838 31 32.6934 31 31.4999V26.9999C31 26.6021 30.842 26.2206 30.5607 25.9393C30.2794 25.658 29.8978 25.4999 29.5 25.4999L23.5 25.4984ZM23.5 26.9984H29.5V31.4999C29.5 32.2956 29.1839 33.0586 28.6213 33.6213C28.0587 34.1839 27.2956 34.4999 26.5 34.4999C25.7044 34.4999 24.9413 34.1839 24.3787 33.6213C23.8161 33.0586 23.5 32.2956 23.5 31.4999V26.9984Z" fill="#E9ECF6"/>
</svg>
