<svg width="56" height="54" viewBox="0 0 56 54" fill="none" xmlns="http://www.w3.org/2000/svg">
<rect width="55.5" height="54" rx="27" fill="#0994DC"/>
<path d="M36.4199 21.62C36.3185 21.3757 36.1243 21.1815 35.8799 21.08C35.7597 21.0288 35.6306 21.0016 35.4999 21H30.4999C30.2347 21 29.9804 21.1054 29.7928 21.2929C29.6053 21.4804 29.4999 21.7348 29.4999 22C29.4999 22.2652 29.6053 22.5196 29.7928 22.7071C29.9804 22.8946 30.2347 23 30.4999 23H33.0899L27.4999 28.59L24.2099 25.29C24.117 25.1963 24.0064 25.1219 23.8845 25.0711C23.7627 25.0203 23.632 24.9942 23.4999 24.9942C23.3679 24.9942 23.2372 25.0203 23.1154 25.0711C22.9935 25.1219 22.8829 25.1963 22.7899 25.29L16.7899 31.29C16.6962 31.383 16.6218 31.4936 16.571 31.6154C16.5203 31.7373 16.4941 31.868 16.4941 32C16.4941 32.132 16.5203 32.2627 16.571 32.3846C16.6218 32.5064 16.6962 32.617 16.7899 32.71C16.8829 32.8037 16.9935 32.8781 17.1154 32.9289C17.2372 32.9797 17.3679 33.0058 17.4999 33.0058C17.632 33.0058 17.7627 32.9797 17.8845 32.9289C18.0064 32.8781 18.117 32.8037 18.2099 32.71L23.4999 27.41L26.7899 30.71C26.8829 30.8037 26.9935 30.8781 27.1154 30.9289C27.2372 30.9797 27.3679 31.0058 27.4999 31.0058C27.632 31.0058 27.7627 30.9797 27.8845 30.9289C28.0064 30.8781 28.117 30.8037 28.2099 30.71L34.4999 24.41V27C34.4999 27.2652 34.6053 27.5196 34.7928 27.7071C34.9804 27.8946 35.2347 28 35.4999 28C35.7652 28 36.0195 27.8946 36.207 27.7071C36.3946 27.5196 36.4999 27.2652 36.4999 27V22C36.4984 21.8693 36.4712 21.7402 36.4199 21.62Z" fill="#E9ECF6"/>
</svg>
