<svg width="56" height="54" viewBox="0 0 56 54" fill="none" xmlns="http://www.w3.org/2000/svg">
<rect width="55.5" height="54" rx="27" fill="#0994DC"/>
<path d="M18.283 17.826L26.5 16L34.717 17.826C34.9391 17.8754 35.1377 17.999 35.28 18.1764C35.4224 18.3538 35.5 18.5745 35.5 18.802V28.789C35.4999 29.7767 35.256 30.7492 34.7899 31.62C34.3238 32.4908 33.6499 33.2331 32.828 33.781L26.5 38L20.172 33.781C19.3503 33.2332 18.6765 32.4911 18.2103 31.6205C17.7442 30.7498 17.5002 29.7776 17.5 28.79V18.802C17.5 18.5745 17.5776 18.3538 17.72 18.1764C17.8623 17.999 18.0609 17.8754 18.283 17.826ZM19.5 19.604V28.789C19.5 29.4475 19.6626 30.0957 19.9733 30.6763C20.2839 31.2568 20.7332 31.7517 21.281 32.117L26.5 35.597L31.719 32.117C32.2667 31.7518 32.7158 31.2571 33.0265 30.6767C33.3372 30.0964 33.4998 29.4483 33.5 28.79V19.604L26.5 18.05L19.5 19.604Z" fill="#E9ECF6"/>
</svg>
