<svg width="60" height="58" viewBox="0 0 60 58" fill="none" xmlns="http://www.w3.org/2000/svg">
<rect width="59.5" height="58" rx="29" fill="#0994DC"/>
<path d="M28.5 34C28.1085 34.0002 27.7255 33.8854 27.3986 33.67C27.0717 33.4545 26.8153 33.1479 26.661 32.788C26.3383 32.7118 26.0207 32.6156 25.71 32.5L25.693 32.494C24.7806 32.1516 23.9384 31.6452 23.208 31C22.2294 30.1367 21.4768 29.0472 21.0159 27.8263C20.555 26.6054 20.3997 25.2904 20.5637 23.9957C20.7276 22.7011 21.2058 21.4662 21.9564 20.3988C22.7071 19.3314 23.7075 18.4638 24.8704 17.8716C26.0333 17.2795 27.3234 16.9809 28.6282 17.0018C29.933 17.0226 31.2129 17.3624 32.3563 17.9914C33.4997 18.6203 34.4718 19.5195 35.188 20.6104C35.9041 21.7013 36.3425 22.9508 36.465 24.25C36.504 24.663 36.165 25 35.75 25C35.336 25 35.005 24.663 34.957 24.251C34.8248 23.1143 34.3948 22.0327 33.7106 21.1154C33.0263 20.1981 32.1121 19.4778 31.0602 19.0271C30.0082 18.5765 28.856 18.4115 27.7199 18.549C26.5838 18.6864 25.5042 19.1213 24.59 19.8098C23.6759 20.4982 22.9598 21.4158 22.514 22.4698C22.0682 23.5238 21.9086 24.6768 22.0512 25.8122C22.1939 26.9477 22.6338 28.0253 23.3264 28.9362C24.0191 29.8472 24.94 30.5591 25.996 31L26.036 31.017C26.236 31.099 26.4413 31.1714 26.652 31.234C26.8446 30.7647 27.2085 30.386 27.6698 30.1749C28.1311 29.9637 28.6555 29.9357 29.1366 30.0967C29.6178 30.2576 30.0198 30.5954 30.2613 31.0417C30.5027 31.4879 30.5655 32.0092 30.437 32.5C30.3261 32.9294 30.0757 33.3098 29.7251 33.5813C29.3744 33.8529 28.9435 34.0001 28.5 34ZM21.5 32.5H22.669C22.1099 32.0643 21.6008 31.5679 21.151 31.02C20.4207 31.1056 19.7473 31.4563 19.2586 32.0057C18.7699 32.555 18.4999 33.2647 18.5 34V34.715C18.5 38.433 22.71 41 28.5 41C34.29 41 38.5 38.292 38.5 34.715V34C38.5 33.2044 38.1839 32.4413 37.6213 31.8787C37.0587 31.3161 36.2956 31 35.5 31H31.855C31.9999 31.4862 32.0375 31.998 31.965 32.5H35.5L35.645 32.507C36.016 32.5431 36.3603 32.7159 36.6108 32.9919C36.8612 33.2679 37 33.6273 37 34V34.715L36.995 34.876C36.855 37.396 33.426 39.5 28.5 39.5C23.389 39.5 20 37.389 20 34.715V34L20.007 33.855C20.043 33.484 20.2159 33.1398 20.4919 32.8893C20.7679 32.6388 21.1273 32.5 21.5 32.5ZM33.5 25C33.5002 25.9058 33.2543 26.7946 32.7886 27.5715C32.3229 28.3484 31.6549 28.9842 30.856 29.411C30.2114 28.8247 29.3714 28.4998 28.5 28.5C28.9596 28.5 29.4148 28.4095 29.8394 28.2336C30.264 28.0577 30.6499 27.7999 30.9749 27.4749C31.2999 27.1499 31.5577 26.7641 31.7336 26.3394C31.9095 25.9148 32 25.4597 32 25C32 24.5404 31.9095 24.0853 31.7336 23.6606C31.5577 23.236 31.2999 22.8502 30.9749 22.5252C30.6499 22.2002 30.264 21.9423 29.8394 21.7665C29.4148 21.5906 28.9596 21.5 28.5 21.5C27.5717 21.5 26.6815 21.8688 26.0251 22.5252C25.3687 23.1815 25 24.0718 25 25C25 25.9283 25.3687 26.8185 26.0251 27.4749C26.6815 28.1313 27.5717 28.5 28.5 28.5C27.592 28.5 26.766 28.846 26.145 29.412C25.3465 28.9856 24.6787 28.3503 24.213 27.574C23.8165 26.9134 23.578 26.1701 23.5161 25.4021C23.4543 24.6341 23.5708 23.8621 23.8565 23.1466C24.1422 22.431 24.5895 21.7912 25.1633 21.277C25.7371 20.7628 26.422 20.3882 27.1645 20.1824C27.907 19.9766 28.6871 19.9452 29.4437 20.0906C30.2004 20.2361 30.9132 20.5544 31.5265 21.0208C32.1398 21.4871 32.637 22.089 32.9794 22.7792C33.3217 23.4695 33.4999 24.2295 33.5 25Z" fill="#E9ECF6"/>
</svg>
