<svg width="56" height="54" viewBox="0 0 56 54" fill="none" xmlns="http://www.w3.org/2000/svg">
<rect width="55.5" height="54" rx="27" fill="#0994DC"/>
<path d="M19.5 27C19.2348 27 18.9804 27.1054 18.7929 27.2929C18.6054 27.4804 18.5 27.7348 18.5 28V36C18.5 36.2652 18.6054 36.5196 18.7929 36.7071C18.9804 36.8946 19.2348 37 19.5 37C19.7652 37 20.0196 36.8946 20.2071 36.7071C20.3946 36.5196 20.5 36.2652 20.5 36V28C20.5 27.7348 20.3946 27.4804 20.2071 27.2929C20.0196 27.1054 19.7652 27 19.5 27ZM24.5 17C24.2348 17 23.9804 17.1054 23.7929 17.2929C23.6054 17.4804 23.5 17.7348 23.5 18V36C23.5 36.2652 23.6054 36.5196 23.7929 36.7071C23.9804 36.8946 24.2348 37 24.5 37C24.7652 37 25.0196 36.8946 25.2071 36.7071C25.3946 36.5196 25.5 36.2652 25.5 36V18C25.5 17.7348 25.3946 17.4804 25.2071 17.2929C25.0196 17.1054 24.7652 17 24.5 17ZM34.5 31C34.2348 31 33.9804 31.1054 33.7929 31.2929C33.6054 31.4804 33.5 31.7348 33.5 32V36C33.5 36.2652 33.6054 36.5196 33.7929 36.7071C33.9804 36.8946 34.2348 37 34.5 37C34.7652 37 35.0196 36.8946 35.2071 36.7071C35.3946 36.5196 35.5 36.2652 35.5 36V32C35.5 31.7348 35.3946 31.4804 35.2071 31.2929C35.0196 31.1054 34.7652 31 34.5 31ZM29.5 23C29.2348 23 28.9804 23.1054 28.7929 23.2929C28.6054 23.4804 28.5 23.7348 28.5 24V36C28.5 36.2652 28.6054 36.5196 28.7929 36.7071C28.9804 36.8946 29.2348 37 29.5 37C29.7652 37 30.0196 36.8946 30.2071 36.7071C30.3946 36.5196 30.5 36.2652 30.5 36V24C30.5 23.7348 30.3946 23.4804 30.2071 23.2929C30.0196 23.1054 29.7652 23 29.5 23Z" fill="#E9ECF6"/>
</svg>
