<svg width="56" height="54" viewBox="0 0 56 54" fill="none" xmlns="http://www.w3.org/2000/svg">
<rect width="55.5" height="54" rx="27" fill="#0994DC"/>
<path fill-rule="evenodd" clip-rule="evenodd" d="M35 28.446C35.552 28.446 36 28.891 36 29.441C36 30.001 35.797 30.863 35.365 31.676C34.925 32.505 34.181 33.406 33.008 33.854C32.7607 33.9492 32.4857 33.9423 32.2434 33.8349C32.0012 33.7275 31.8115 33.5283 31.716 33.281C31.669 33.1588 31.6467 33.0285 31.6503 32.8976C31.6538 32.7667 31.6832 32.6378 31.7367 32.5183C31.7903 32.3988 31.8669 32.2911 31.9622 32.2013C32.0574 32.1115 32.1695 32.0414 32.292 31.995C32.869 31.775 33.3 31.305 33.597 30.745C33.903 30.17 34 29.625 34 29.441C34 28.891 34.448 28.446 35 28.446Z" fill="#E9ECF6"/>
<path fill-rule="evenodd" clip-rule="evenodd" d="M34.101 26.895L34.128 26.943L34.13 26.945L34.133 26.951L34.143 26.97L34.179 27.03C34.204 27.072 34.249 27.145 34.296 27.212C34.3799 27.3314 34.4888 27.431 34.6152 27.5039C34.7415 27.5768 34.8823 27.6213 35.0276 27.6341C35.173 27.647 35.3193 27.628 35.4565 27.5784C35.5938 27.5288 35.7185 27.4498 35.822 27.347C35.9009 27.2684 35.9662 27.1771 36.015 27.077C36.048 27.012 36.066 26.955 36.071 26.941C36.1028 26.8297 36.1318 26.7177 36.158 26.605C36.198 26.428 36.248 26.185 36.298 25.916C36.392 25.4 36.5 24.7 36.5 24.173C36.5 22.373 35.936 20.618 34.95 19.291C33.96 17.959 32.492 17 30.719 17C28.936 17 27.519 17.78 26.5 19.07C25.48 17.78 24.064 17 22.281 17C20.508 17 19.04 17.959 18.051 19.29C17.063 20.618 16.5 22.373 16.5 24.173C16.5 25.136 16.646 26.053 16.9 26.921C17.0253 27.3443 17.1733 27.755 17.344 28.153C18.526 30.905 20.734 33.067 22.577 34.516C23.508 35.246 24.367 35.813 24.995 36.197C25.3311 36.4022 25.6729 36.598 26.02 36.784L26.037 36.793L26.042 36.795L26.044 36.796L26.5 37L26.909 36.819L26.913 36.817L26.929 36.81L26.984 36.785L27.184 36.692C27.354 36.612 27.594 36.497 27.876 36.354C28.5691 36.0072 29.2434 35.624 29.896 35.206C30.896 34.556 30.691 33.216 29.866 32.681C28.952 32.089 27.471 30.935 26.809 29.444C26.7449 29.2991 26.6895 29.1505 26.643 28.999C26.5493 28.6913 26.5012 28.3716 26.5 28.05C26.5 27.453 26.697 26.897 26.994 26.509C27.287 26.126 27.633 25.957 27.969 25.957C28.123 25.957 28.405 26.048 28.758 26.336C29.095 26.61 29.39 26.978 29.565 27.316C29.6544 27.4867 29.7889 27.6296 29.9539 27.7293C30.1188 27.829 30.3079 27.8815 30.5006 27.8813C30.6933 27.8811 30.8823 27.8281 31.047 27.7281C31.2117 27.6281 31.3459 27.4849 31.435 27.314C31.613 26.971 31.903 26.602 32.232 26.33C32.576 26.046 32.849 25.957 33 25.957C33.284 25.957 33.461 26.03 33.597 26.137C33.75 26.255 33.919 26.467 34.08 26.844L34.101 26.895ZM18.82 26.363C18.6098 25.6519 18.502 24.9145 18.5 24.173C18.5 20.304 21 18.99 22.5 18.99C25.18 18.99 26.5 21.478 26.5 21.478C27.255 19.91 29.303 18.99 30.719 18.99C31.709 18.99 32.631 19.517 33.342 20.473C34.055 21.433 34.5 22.766 34.5 24.172C34.4996 24.2294 34.4976 24.2867 34.494 24.344C34.0374 24.0901 33.5224 23.9598 33 23.966C32.193 23.966 31.478 24.366 30.953 24.8C30.7923 24.9333 30.6397 25.0767 30.495 25.23C30.3475 25.0747 30.1902 24.9291 30.024 24.794C29.494 24.363 28.772 23.966 27.969 23.966C26.878 23.966 25.989 24.539 25.405 25.301C24.825 26.057 24.5 27.044 24.5 28.051C24.5 28.585 24.584 29.094 24.728 29.571C24.7987 29.805 24.8827 30.03 24.98 30.246C25.723 31.924 27.138 33.18 28.165 33.929C27.6341 34.2386 27.091 34.5269 26.537 34.793C25.5885 34.2438 24.6797 33.629 23.817 32.953C22.085 31.592 20.175 29.679 19.184 27.369C19.0428 27.0409 18.9212 26.7056 18.82 26.363Z" fill="#E9ECF6"/>
</svg>
