<svg width="56" height="54" viewBox="0 0 56 54" fill="none" xmlns="http://www.w3.org/2000/svg">
<rect width="55.5" height="54" rx="27" fill="#0994DC"/>
<g clip-path="url(#clip0_155_2487)">
<path d="M35.213 22.1281L34.967 22.6941C34.9286 22.7863 34.8637 22.865 34.7806 22.9204C34.6975 22.9758 34.5999 23.0053 34.5 23.0053C34.4001 23.0053 34.3025 22.9758 34.2194 22.9204C34.1363 22.865 34.0714 22.7863 34.033 22.6941L33.787 22.1281C33.3545 21.1268 32.5624 20.324 31.567 19.8781L30.808 19.5391C30.7159 19.4967 30.6379 19.4289 30.5832 19.3435C30.5286 19.2582 30.4995 19.159 30.4995 19.0576C30.4995 18.9562 30.5286 18.857 30.5832 18.7717C30.6379 18.6863 30.7159 18.6185 30.808 18.5761L31.525 18.2571C32.5454 17.7985 33.3511 16.966 33.776 15.9311L34.03 15.3201C34.0672 15.2255 34.132 15.1442 34.216 15.0869C34.3 15.0297 34.3993 14.999 34.501 14.999C34.6027 14.999 34.702 15.0297 34.786 15.0869C34.87 15.1442 34.9348 15.2255 34.972 15.3201L35.225 15.9301C35.6495 16.9652 36.4548 17.798 37.475 18.2571L38.193 18.5771C38.2848 18.6196 38.3625 18.6874 38.417 18.7727C38.4715 18.8579 38.5004 18.957 38.5004 19.0581C38.5004 19.1593 38.4715 19.2583 38.417 19.3435C38.3625 19.4288 38.2848 19.4966 38.193 19.5391L37.433 19.8771C36.4378 20.3235 35.6461 21.1266 35.214 22.1281M23 21.0001H21V33.0001H23V21.0001ZM18.5 25.0001H16.5V29.0001H18.5V25.0001ZM27.5 17.0001H25.5V37.0001H27.5V17.0001ZM32 23.0001H30V33.0001H32V23.0001ZM36.5 25.0001H34.5V29.0001H36.5V25.0001Z" fill="#E9ECF6"/>
</g>
<defs>
<clipPath id="clip0_155_2487">
<rect width="24" height="24" fill="white" transform="translate(14.5 15)"/>
</clipPath>
</defs>
</svg>
