<svg width="24" height="24" viewBox="0 0 24 24" fill="none" xmlns="http://www.w3.org/2000/svg">
<path d="M18.0054 21.7498C17.7675 21.7498 17.5302 21.7253 17.2974 21.6768C15.4912 21.3121 13.7362 20.7285 12.0714 19.9388L11.0744 19.4138C8.3457 17.8984 6.09631 15.6487 4.58136 12.9198L4.06536 11.9328V11.9238C3.27485 10.2596 2.68988 8.50533 2.32336 6.69975C2.20614 6.11167 2.23767 5.50362 2.4151 4.93082C2.59253 4.35801 2.91024 3.8386 3.33936 3.41975L3.46236 3.29975C4.07976 2.68661 4.89865 2.31827 5.76703 2.2631C6.63542 2.20792 7.49433 2.46967 8.18436 2.99975C8.57016 3.2977 8.89107 3.67128 9.12742 4.0976C9.36378 4.52391 9.51061 4.994 9.55891 5.47905C9.60722 5.96411 9.55599 6.45392 9.40837 6.91848C9.26074 7.38304 9.01982 7.81257 8.70036 8.18075L5.63236 11.7148C7.09641 14.5757 9.42368 16.9033 12.2844 18.3678L15.8184 15.2998C16.1868 14.9806 16.6165 14.74 17.0812 14.5926C17.5458 14.4452 18.0356 14.3941 18.5207 14.4425C19.0057 14.4909 19.4758 14.6377 19.9022 14.874C20.3285 15.1103 20.7022 15.4311 21.0004 15.8168C21.5315 16.506 21.794 17.3648 21.7388 18.2332C21.6836 19.1016 21.3145 19.9203 20.7004 20.5368L20.5794 20.6588C20.2431 21.0009 19.8427 21.2734 19.401 21.4606C18.9593 21.6478 18.4851 21.7461 18.0054 21.7498ZM13.7784 19.0578C15.0165 19.5555 16.297 19.9404 17.6044 20.2078C17.9486 20.2743 18.3039 20.2536 18.6381 20.1476C18.9722 20.0416 19.2745 19.8536 19.5174 19.6008L19.6384 19.4788C19.9962 19.1206 20.2116 18.6445 20.2444 18.1393C20.2771 17.634 20.125 17.1341 19.8164 16.7328C19.6433 16.5081 19.4261 16.3212 19.1782 16.1835C18.9303 16.0459 18.6568 15.9604 18.3746 15.9323C18.0924 15.9042 17.8075 15.9341 17.5373 16.0202C17.2671 16.1062 17.0173 16.2466 16.8034 16.4328L13.7784 19.0578ZM6.00036 3.75175C5.72675 3.75112 5.4557 3.8045 5.20276 3.90883C4.94982 4.01316 4.71996 4.1664 4.52636 4.35976L4.40036 4.48376C4.14672 4.72672 3.95807 5.02941 3.85168 5.36414C3.74529 5.69887 3.72455 6.05494 3.79136 6.39976C4.05921 7.70689 4.44478 8.98711 4.94336 10.2248L7.56836 7.19975C7.83112 6.89881 8.00164 6.52856 8.05956 6.13328C8.11747 5.73799 8.06032 5.33438 7.89494 4.97071C7.72956 4.60704 7.46294 4.2987 7.12697 4.08253C6.79099 3.86637 6.39987 3.75153 6.00036 3.75175Z" fill="#0994DC"/>
</svg>
