<svg width="12" height="13" viewBox="0 0 12 13" fill="none" xmlns="http://www.w3.org/2000/svg">
<path d="M2.52802 12.32C2.52802 12.1813 2.50135 12.112 2.44802 12.112L2.08002 12.288C2.08002 12.2133 2.03735 12.16 1.95202 12.128L1.82402 12.112C1.73869 12.112 1.63202 12.1493 1.50402 12.224C1.48269 12.1706 1.45602 12.1173 1.42402 12.064C1.39202 12.0106 1.36535 11.9626 1.34402 11.92C1.20535 11.6533 1.06669 11.36 0.928021 11.04C0.800021 10.7093 0.677354 10.3946 0.560021 10.096C0.453354 9.7973 0.368021 9.56263 0.304021 9.39197C0.261354 9.2533 0.213354 9.0453 0.160021 8.76797C0.106688 8.49063 0.0533544 8.13863 2.10404e-05 7.71197C0.117354 7.78663 0.208021 7.82397 0.272021 7.82397C0.346688 7.82397 0.416021 7.71197 0.480021 7.48797C0.512021 7.53063 0.570688 7.55197 0.656021 7.55197C0.720021 7.55197 0.768021 7.53063 0.800021 7.48797L1.05602 7.10397L1.34402 7.19997H1.36002C1.38135 7.19997 1.40269 7.1893 1.42402 7.16797C1.44535 7.14663 1.47735 7.1253 1.52002 7.10397C1.60535 7.05063 1.66935 7.02397 1.71202 7.02397L1.76002 7.03997C2.02669 7.16797 2.19735 7.40263 2.27202 7.74397C2.46402 8.55463 2.65602 8.95997 2.84802 8.95997C3.04002 8.95997 3.26402 8.7573 3.52002 8.35197C3.64802 8.1493 3.77602 7.91463 3.90402 7.64797C4.04269 7.3813 4.18135 7.08263 4.32002 6.75197C4.34135 6.87997 4.36269 6.94397 4.38402 6.94397C4.43735 6.94397 4.52802 6.81063 4.65602 6.54397C4.79469 6.2773 5.01335 5.9093 5.31202 5.43997C5.48269 5.15197 5.69602 4.82663 5.95202 4.46397C6.21869 4.1013 6.50135 3.72797 6.80002 3.34397C7.09869 2.95997 7.38669 2.5973 7.66402 2.25597C7.95202 1.91463 8.20802 1.6213 8.43202 1.37597C8.65602 1.13063 8.82135 0.970633 8.92802 0.895967C9.33335 0.618633 9.65335 0.351966 9.88802 0.0959663C9.87735 0.170633 9.86135 0.239966 9.84002 0.303967C9.82935 0.3573 9.82402 0.394633 9.82402 0.415966C9.82402 0.458633 9.84535 0.479966 9.88802 0.479966L10.336 0.255966V0.319966C10.336 0.4053 10.3574 0.447967 10.4 0.447967C10.432 0.447967 10.496 0.399967 10.592 0.303967C10.688 0.207966 10.7414 0.138633 10.752 0.0959663L10.72 0.319966L11.264 -3.33786e-05L11.136 0.287967C11.3067 0.170633 11.4294 0.111966 11.504 0.111966C11.5467 0.111966 11.5787 0.138633 11.6 0.191966C11.6214 0.234633 11.632 0.2773 11.632 0.319966C11.632 0.383966 11.6054 0.458633 11.552 0.543966C11.4987 0.6293 11.4294 0.730633 11.344 0.847966C11.28 0.9333 11.1734 1.0613 11.024 1.23197C10.8854 1.39197 10.672 1.63197 10.384 1.95197C10.096 2.2613 9.71202 2.6933 9.23202 3.24797C9.10402 3.38663 8.90669 3.63197 8.64002 3.98397C8.37335 4.3253 8.06936 4.7253 7.72802 5.18397C7.39735 5.63197 7.06669 6.0853 6.73602 6.54397C6.40535 7.00263 6.11202 7.41863 5.85602 7.79197C5.60002 8.15463 5.41869 8.42663 5.31202 8.60797L4.32002 10.288C4.10669 10.6506 3.93069 10.9493 3.79202 11.184C3.65335 11.408 3.54669 11.5626 3.47202 11.648C3.31202 11.84 3.13602 12.0106 2.94402 12.16L2.80002 12.08L2.67202 12.16L2.52802 12.32Z" fill="#2744A0"/>
</svg>
