<svg width="56" height="54" viewBox="0 0 56 54" fill="none" xmlns="http://www.w3.org/2000/svg">
<rect width="55.5" height="54" rx="27" fill="#0994DC"/>
<g clip-path="url(#clip0_342_498)">
<path d="M20.2441 34.8349C20.3456 35.4899 20.4511 36.0859 20.5391 36.5569C20.6641 37.2194 21.1351 37.7514 21.8016 37.8519C22.3246 37.9314 23.0511 37.9999 24.0001 37.9999C24.9026 37.9999 25.6441 37.9379 26.2086 37.8639C27.0006 37.7599 27.5556 37.1009 27.6416 36.3069L27.8021 34.8259" stroke="#E9ECF6" stroke-width="1.5" stroke-linecap="round" stroke-linejoin="round"/>
<path d="M32.3112 16.302C32.3543 16.2234 32.4178 16.1577 32.4949 16.112C32.5721 16.0663 32.6601 16.0422 32.7497 16.0422C32.8394 16.0422 32.9274 16.0663 33.0046 16.112C33.0817 16.1577 33.1452 16.2234 33.1882 16.302L34.1842 18.123C34.4595 18.6263 34.8734 19.0402 35.3767 19.3155L37.1977 20.3115C37.2764 20.3546 37.342 20.418 37.3877 20.4952C37.4334 20.5723 37.4575 20.6603 37.4575 20.75C37.4575 20.8397 37.4334 20.9277 37.3877 21.0048C37.342 21.082 37.2764 21.1454 37.1977 21.1885L35.3767 22.1845C34.8734 22.4598 34.4595 22.8736 34.1842 23.377L33.1882 25.198C33.1452 25.2766 33.0817 25.3422 33.0046 25.3879C32.9274 25.4336 32.8394 25.4577 32.7497 25.4577C32.6601 25.4577 32.5721 25.4336 32.4949 25.3879C32.4178 25.3422 32.3543 25.2766 32.3112 25.198L31.3152 23.377C31.04 22.8736 30.6261 22.4598 30.1227 22.1845L28.3017 21.1885C28.2231 21.1454 28.1575 21.082 28.1118 21.0048C28.0661 20.9277 28.042 20.8397 28.042 20.75C28.042 20.6603 28.0661 20.5723 28.1118 20.4952C28.1575 20.418 28.2231 20.3546 28.3017 20.3115L30.1227 19.3155C30.6261 19.0402 31.04 18.6263 31.3152 18.123L32.3112 16.302Z" stroke="#E9ECF6" stroke-width="1.5"/>
<path d="M27.25 17.6435C26.2194 17.2179 25.1151 16.9993 24 17C19.3055 17 15.5 20.8055 15.5 25.5C15.5 28.2165 16.7745 30.6355 18.758 32.1915C18.9042 32.7758 19.0661 33.356 19.2435 33.9315C19.397 34.4305 19.8115 34.793 20.331 34.8475C21.0275 34.92 22.202 35 24 35C25.798 35 26.9725 34.92 27.669 34.8475C28.1885 34.793 28.603 34.4305 28.756 33.931C28.8995 33.4645 29.081 32.841 29.242 32.1915C30.5041 31.2025 31.4614 29.8773 32.004 28.3685" stroke="#E9ECF6" stroke-width="1.5" stroke-linecap="round" stroke-linejoin="round"/>
</g>
<defs>
<clipPath id="clip0_342_498">
<rect width="24" height="24" fill="white" transform="translate(14.5 15)"/>
</clipPath>
</defs>
</svg>
