<svg width="56" height="40" viewBox="0 0 56 40" fill="none" xmlns="http://www.w3.org/2000/svg">
<g clip-path="url(#clip0_241_194)">
<path d="M0.666016 33.9999C0.666016 35.6502 1.32157 37.2328 2.48846 38.3997C3.65536 39.5666 5.238 40.2222 6.88824 40.2222H50.4438C52.094 40.2222 53.6767 39.5666 54.8436 38.3997C56.0105 37.2328 56.666 35.6502 56.666 33.9999V26.2222H0.666016V33.9999Z" fill="#138808"/>
<path d="M56.666 13.7778V6.00005C56.666 4.34982 56.0105 2.76717 54.8436 1.60028C53.6767 0.433385 52.094 -0.222168 50.4438 -0.222168H6.88824C5.238 -0.222168 3.65536 0.433385 2.48846 1.60028C1.32157 2.76717 0.666016 4.34982 0.666016 6.00005L0.666016 13.7778H56.666Z" fill="#FF9933"/>
<path d="M0.666016 13.2598H56.666V26.7418H0.666016V13.2598Z" fill="#F7F7F7"/>
<path d="M28.6656 26.2223C32.102 26.2223 34.8878 23.4365 34.8878 20.0001C34.8878 16.5636 32.102 13.7778 28.6656 13.7778C25.2291 13.7778 22.4434 16.5636 22.4434 20.0001C22.4434 23.4365 25.2291 26.2223 28.6656 26.2223Z" fill="#000080"/>
<path d="M28.666 25.25C31.5655 25.25 33.916 22.8995 33.916 20C33.916 17.1005 31.5655 14.75 28.666 14.75C25.7665 14.75 23.416 17.1005 23.416 20C23.416 22.8995 25.7665 25.25 28.666 25.25Z" fill="#F7F7F7"/>
<path d="M28.8218 18.0555L28.6663 19.0667L28.5107 18.0555L28.6663 15.0222L28.8218 18.0555ZM27.3783 15.1918L28.0129 18.1613L28.4251 19.0978L28.3131 18.082L27.3783 15.1918ZM26.1774 15.6895L27.5587 18.3931L28.1996 19.1911L27.8294 18.2376L26.1774 15.6895ZM25.146 16.4798L27.1807 18.7353L28.0067 19.3404L27.4016 18.5144L25.146 16.4798ZM24.3558 17.5111L26.9038 19.1631L27.8574 19.5333L27.0594 18.8924L24.3558 17.5111ZM23.858 18.712L26.7483 19.6469L27.764 19.7589L26.8276 19.3467L23.858 18.712ZM23.6885 20L26.7218 20.1556L27.7329 20L26.7218 19.8444L23.6885 20ZM23.858 21.288L26.8276 20.6533L27.764 20.2411L26.7483 20.3531L23.858 21.288ZM24.3558 22.4889L27.0594 21.1075L27.8574 20.4667L26.9038 20.8369L24.3558 22.4889ZM25.146 23.5202L27.4016 21.4855L28.0067 20.6595L27.1807 21.2647L25.146 23.5202ZM26.1774 24.3104L27.8294 21.7624L28.1996 20.8089L27.5587 21.6069L26.1774 24.3104ZM27.3783 24.8082L28.3131 21.918L28.4251 20.9022L28.0129 21.8387L27.3783 24.8082ZM28.6663 24.9778L28.8218 21.9444L28.6663 20.9333L28.5107 21.9444L28.6663 24.9778ZM29.9543 24.8082L29.3196 21.8387L28.9074 20.9022L29.0194 21.918L29.9543 24.8082ZM31.1551 24.3104L29.7738 21.6069L29.1329 20.8089L29.5031 21.7624L31.1551 24.3104ZM32.1865 23.5202L30.1518 21.2647L29.3258 20.6595L29.9309 21.4855L32.1865 23.5202ZM32.9767 22.4889L30.4287 20.8369L29.4751 20.4667L30.2731 21.1075L32.9767 22.4889ZM33.4745 21.288L30.5843 20.3531L29.5685 20.2411L30.5049 20.6533L33.4745 21.288ZM33.644 20L30.6107 19.8444L29.5996 20L30.6107 20.1556L33.644 20ZM33.4745 18.712L30.5049 19.3467L29.5685 19.7589L30.5843 19.6469L33.4745 18.712ZM32.9767 17.5111L30.2731 18.8924L29.4751 19.5333L30.4287 19.1631L32.9767 17.5111ZM32.1865 16.4798L29.9309 18.5144L29.3258 19.3404L30.1518 18.7353L32.1865 16.4798ZM31.1551 15.6895L29.5031 18.2376L29.1329 19.1911L29.7738 18.3931L31.1551 15.6895ZM29.9543 15.1918L29.0194 18.082L28.9074 19.0978L29.3196 18.1613L29.9543 15.1918Z" fill="#6666B3"/>
<path d="M27.982 15.1139C28.1538 15.1139 28.2931 14.9746 28.2931 14.8028C28.2931 14.631 28.1538 14.4917 27.982 14.4917C27.8102 14.4917 27.6709 14.631 27.6709 14.8028C27.6709 14.9746 27.8102 15.1139 27.982 15.1139Z" fill="#000080"/>
<path d="M26.6597 15.4687C26.8316 15.4687 26.9709 15.3294 26.9709 15.1575C26.9709 14.9857 26.8316 14.8464 26.6597 14.8464C26.4879 14.8464 26.3486 14.9857 26.3486 15.1575C26.3486 15.3294 26.4879 15.4687 26.6597 15.4687Z" fill="#000080"/>
<path d="M25.4742 16.1515C25.646 16.1515 25.7853 16.0122 25.7853 15.8404C25.7853 15.6686 25.646 15.5293 25.4742 15.5293C25.3024 15.5293 25.1631 15.6686 25.1631 15.8404C25.1631 16.0122 25.3024 16.1515 25.4742 16.1515Z" fill="#000080"/>
<path d="M24.5064 17.119C24.6782 17.119 24.8175 16.9798 24.8175 16.8079C24.8175 16.6361 24.6782 16.4968 24.5064 16.4968C24.3346 16.4968 24.1953 16.6361 24.1953 16.8079C24.1953 16.9798 24.3346 17.119 24.5064 17.119Z" fill="#000080"/>
<path d="M23.8238 18.3044C23.9956 18.3044 24.1349 18.1651 24.1349 17.9932C24.1349 17.8214 23.9956 17.6821 23.8238 17.6821C23.652 17.6821 23.5127 17.8214 23.5127 17.9932C23.5127 18.1651 23.652 18.3044 23.8238 18.3044Z" fill="#000080"/>
<path d="M23.4693 19.6266C23.6411 19.6266 23.7804 19.4873 23.7804 19.3155C23.7804 19.1437 23.6411 19.0044 23.4693 19.0044C23.2975 19.0044 23.1582 19.1437 23.1582 19.3155C23.1582 19.4873 23.2975 19.6266 23.4693 19.6266Z" fill="#000080"/>
<path d="M23.4693 20.9955C23.6411 20.9955 23.7804 20.8562 23.7804 20.6844C23.7804 20.5126 23.6411 20.3733 23.4693 20.3733C23.2975 20.3733 23.1582 20.5126 23.1582 20.6844C23.1582 20.8562 23.2975 20.9955 23.4693 20.9955Z" fill="#000080"/>
<path d="M23.8238 22.3178C23.9956 22.3178 24.1349 22.1785 24.1349 22.0067C24.1349 21.8348 23.9956 21.6956 23.8238 21.6956C23.652 21.6956 23.5127 21.8348 23.5127 22.0067C23.5127 22.1785 23.652 22.3178 23.8238 22.3178Z" fill="#000080"/>
<path d="M24.5064 23.5031C24.6782 23.5031 24.8175 23.3638 24.8175 23.192C24.8175 23.0201 24.6782 22.8809 24.5064 22.8809C24.3346 22.8809 24.1953 23.0201 24.1953 23.192C24.1953 23.3638 24.3346 23.5031 24.5064 23.5031Z" fill="#000080"/>
<path d="M25.4742 24.4706C25.646 24.4706 25.7853 24.3313 25.7853 24.1595C25.7853 23.9877 25.646 23.8484 25.4742 23.8484C25.3024 23.8484 25.1631 23.9877 25.1631 24.1595C25.1631 24.3313 25.3024 24.4706 25.4742 24.4706Z" fill="#000080"/>
<path d="M26.6597 25.1535C26.8316 25.1535 26.9709 25.0142 26.9709 24.8424C26.9709 24.6705 26.8316 24.5312 26.6597 24.5312C26.4879 24.5312 26.3486 24.6705 26.3486 24.8424C26.3486 25.0142 26.4879 25.1535 26.6597 25.1535Z" fill="#000080"/>
<path d="M27.982 25.5082C28.1538 25.5082 28.2931 25.3689 28.2931 25.1971C28.2931 25.0253 28.1538 24.886 27.982 24.886C27.8102 24.886 27.6709 25.0253 27.6709 25.1971C27.6709 25.3689 27.8102 25.5082 27.982 25.5082Z" fill="#000080"/>
<path d="M29.3512 25.5082C29.523 25.5082 29.6623 25.3689 29.6623 25.1971C29.6623 25.0253 29.523 24.886 29.3512 24.886C29.1793 24.886 29.04 25.0253 29.04 25.1971C29.04 25.3689 29.1793 25.5082 29.3512 25.5082Z" fill="#000080"/>
<path d="M30.6734 25.1535C30.8452 25.1535 30.9845 25.0142 30.9845 24.8424C30.9845 24.6705 30.8452 24.5312 30.6734 24.5312C30.5016 24.5312 30.3623 24.6705 30.3623 24.8424C30.3623 25.0142 30.5016 25.1535 30.6734 25.1535Z" fill="#000080"/>
<path d="M31.858 24.4706C32.0298 24.4706 32.1691 24.3313 32.1691 24.1595C32.1691 23.9877 32.0298 23.8484 31.858 23.8484C31.6862 23.8484 31.5469 23.9877 31.5469 24.1595C31.5469 24.3313 31.6862 24.4706 31.858 24.4706Z" fill="#000080"/>
<path d="M32.8258 23.5031C32.9976 23.5031 33.1369 23.3638 33.1369 23.192C33.1369 23.0201 32.9976 22.8809 32.8258 22.8809C32.6539 22.8809 32.5146 23.0201 32.5146 23.192C32.5146 23.3638 32.6539 23.5031 32.8258 23.5031Z" fill="#000080"/>
<path d="M33.5094 22.3178C33.6812 22.3178 33.8205 22.1785 33.8205 22.0067C33.8205 21.8348 33.6812 21.6956 33.5094 21.6956C33.3375 21.6956 33.1982 21.8348 33.1982 22.0067C33.1982 22.1785 33.3375 22.3178 33.5094 22.3178Z" fill="#000080"/>
<path d="M33.8638 20.9955C34.0357 20.9955 34.175 20.8562 34.175 20.6844C34.175 20.5126 34.0357 20.3733 33.8638 20.3733C33.692 20.3733 33.5527 20.5126 33.5527 20.6844C33.5527 20.8562 33.692 20.9955 33.8638 20.9955Z" fill="#000080"/>
<path d="M33.8638 19.6266C34.0357 19.6266 34.175 19.4873 34.175 19.3155C34.175 19.1437 34.0357 19.0044 33.8638 19.0044C33.692 19.0044 33.5527 19.1437 33.5527 19.3155C33.5527 19.4873 33.692 19.6266 33.8638 19.6266Z" fill="#000080"/>
<path d="M33.5094 18.3044C33.6812 18.3044 33.8205 18.1651 33.8205 17.9932C33.8205 17.8214 33.6812 17.6821 33.5094 17.6821C33.3375 17.6821 33.1982 17.8214 33.1982 17.9932C33.1982 18.1651 33.3375 18.3044 33.5094 18.3044Z" fill="#000080"/>
<path d="M32.8258 17.119C32.9976 17.119 33.1369 16.9798 33.1369 16.8079C33.1369 16.6361 32.9976 16.4968 32.8258 16.4968C32.6539 16.4968 32.5146 16.6361 32.5146 16.8079C32.5146 16.9798 32.6539 17.119 32.8258 17.119Z" fill="#000080"/>
<path d="M31.858 16.1515C32.0298 16.1515 32.1691 16.0122 32.1691 15.8404C32.1691 15.6686 32.0298 15.5293 31.858 15.5293C31.6862 15.5293 31.5469 15.6686 31.5469 15.8404C31.5469 16.0122 31.6862 16.1515 31.858 16.1515Z" fill="#000080"/>
<path d="M30.6734 15.4687C30.8452 15.4687 30.9845 15.3294 30.9845 15.1575C30.9845 14.9857 30.8452 14.8464 30.6734 14.8464C30.5016 14.8464 30.3623 14.9857 30.3623 15.1575C30.3623 15.3294 30.5016 15.4687 30.6734 15.4687Z" fill="#000080"/>
<path d="M29.3512 15.1139C29.523 15.1139 29.6623 14.9746 29.6623 14.8028C29.6623 14.631 29.523 14.4917 29.3512 14.4917C29.1793 14.4917 29.04 14.631 29.04 14.8028C29.04 14.9746 29.1793 15.1139 29.3512 15.1139Z" fill="#000080"/>
<path d="M28.6666 21.3999C29.4398 21.3999 30.0666 20.7731 30.0666 19.9999C30.0666 19.2267 29.4398 18.5999 28.6666 18.5999C27.8934 18.5999 27.2666 19.2267 27.2666 19.9999C27.2666 20.7731 27.8934 21.3999 28.6666 21.3999Z" fill="#000080"/>
</g>
<defs>
<clipPath id="clip0_241_194">
<rect width="56" height="40" fill="white"/>
</clipPath>
</defs>
</svg>
