<svg width="56" height="54" viewBox="0 0 56 54" fill="none" xmlns="http://www.w3.org/2000/svg">
<rect width="55.5" height="54" rx="27" fill="#0994DC"/>
<g clip-path="url(#clip0_342_488)">
<path d="M38.3408 25.1166L35.9483 20.3297C35.8602 20.1535 35.7382 19.9964 35.5894 19.8674C35.4405 19.7383 35.2677 19.6399 35.0808 19.5776C34.8939 19.5154 34.6965 19.4906 34.5 19.5046C34.3035 19.5186 34.1117 19.5712 33.9355 19.6594L31.604 20.8247L26.6924 19.5253C26.5664 19.4925 26.434 19.4925 26.308 19.5253L21.3965 20.8247L19.0649 19.6594C18.8887 19.5712 18.6969 19.5186 18.5004 19.5046C18.3039 19.4906 18.1066 19.5154 17.9196 19.5776C17.7327 19.6399 17.5599 19.7383 17.4111 19.8674C17.2622 19.9964 17.1402 20.1535 17.0521 20.3297L14.6596 25.1156C14.5714 25.2918 14.5188 25.4836 14.5048 25.6801C14.4908 25.8766 14.5156 26.074 14.5778 26.2609C14.6401 26.4478 14.7385 26.6206 14.8676 26.7695C14.9966 26.9183 15.1537 27.0403 15.3299 27.1285L17.8611 28.395L23.0633 32.1103C23.14 32.1648 23.2262 32.2045 23.3174 32.2275L29.3174 33.7275C29.443 33.759 29.5747 33.7575 29.6996 33.723C29.8244 33.6885 29.9382 33.6222 30.0299 33.5306L33.7799 29.7806L35.1936 28.3669L37.6705 27.1285C38.0261 26.9504 38.2964 26.6385 38.4221 26.2613C38.5478 25.884 38.5186 25.4723 38.3408 25.1166ZM33.1949 28.245L29.969 25.6613C29.8244 25.5455 29.6422 25.4873 29.4574 25.4979C29.2725 25.5085 29.0981 25.587 28.9677 25.7185C27.298 27.4003 25.4371 27.1875 24.2502 26.4375L28.304 22.5H31.2861L33.8371 27.601L33.1949 28.245ZM29.2696 32.1694L23.8208 30.8072L19.2083 27.5128L21.8333 22.2628L26.5002 21.0263L27.419 21.2691L23.2002 25.3641L23.1927 25.3725C23.0339 25.5313 22.9128 25.7238 22.8383 25.9356C22.7638 26.1475 22.7378 26.3734 22.7623 26.5967C22.7868 26.8199 22.8611 27.0348 22.9797 27.2255C23.0983 27.4162 23.2583 27.5778 23.4477 27.6985C25.3752 28.9294 27.7011 28.7297 29.533 27.2297L32.1252 29.3119L29.2696 32.1694ZM26.8583 35.4319C26.8178 35.594 26.7243 35.7379 26.5927 35.8408C26.4611 35.9438 26.2989 35.9998 26.1318 36C26.0701 36.0001 26.0087 35.9925 25.949 35.9775L22.0386 34.9997C21.9473 34.9771 21.8611 34.9374 21.7846 34.8825L19.3143 33.1181C19.1624 32.9989 19.0623 32.8256 19.035 32.6345C19.0076 32.4433 19.0551 32.2489 19.1674 32.0919C19.2798 31.9348 19.4484 31.8271 19.6382 31.7913C19.8279 31.7554 20.0242 31.7942 20.1861 31.8994L22.5402 33.5813L26.3127 34.5225C26.5056 34.5708 26.6715 34.6937 26.7738 34.8642C26.8761 35.0348 26.9065 35.2389 26.8583 35.4319Z" fill="#E9ECF6"/>
</g>
<defs>
<clipPath id="clip0_342_488">
<rect width="24" height="24" fill="white" transform="translate(14.5 15)"/>
</clipPath>
</defs>
</svg>
