<svg width="24" height="24" viewBox="0 0 24 24" fill="none" xmlns="http://www.w3.org/2000/svg">
<path fill-rule="evenodd" clip-rule="evenodd" d="M12.008 5.00684C9.49511 5.00684 7.45801 7.04394 7.45801 9.55684C7.45801 12.0697 9.49511 14.1068 12.008 14.1068C14.5209 14.1068 16.558 12.0697 16.558 9.55684C16.558 7.04394 14.5209 5.00684 12.008 5.00684ZM8.95801 9.55684C8.95801 7.87237 10.3235 6.50684 12.008 6.50684C13.6925 6.50684 15.058 7.87237 15.058 9.55684C15.058 11.2413 13.6925 12.6068 12.008 12.6068C10.3235 12.6068 8.95801 11.2413 8.95801 9.55684Z" fill="#0994DC"/>
<path fill-rule="evenodd" clip-rule="evenodd" d="M12.0073 1.75C7.37271 1.75 4.2002 5.30036 4.2002 9.55714C4.2002 12.7123 5.12481 15.8301 6.51877 18.1758C7.88192 20.4695 9.84163 22.25 12.0073 22.25C14.173 22.25 16.1328 20.4695 17.4959 18.1758C18.8899 15.8301 19.8145 12.7123 19.8145 9.55714C19.8145 5.30036 16.642 1.75 12.0073 1.75ZM5.7002 9.55714C5.7002 6.08194 8.24723 3.25 12.0073 3.25C15.7674 3.25 18.3145 6.08194 18.3145 9.55714C18.3145 12.4394 17.4642 15.293 16.2064 17.4094C14.9178 19.5778 13.349 20.75 12.0073 20.75C10.6657 20.75 9.09685 19.5778 7.80825 17.4094C6.55049 15.293 5.7002 12.4394 5.7002 9.55714Z" fill="#0994DC"/>
</svg>
