<svg width="24" height="24" viewBox="0 0 24 24" fill="none" xmlns="http://www.w3.org/2000/svg">
<path d="M7.38586 8.35689C7.03068 8.14378 6.56998 8.25895 6.35687 8.61413C6.14376 8.96932 6.25893 9.43002 6.61412 9.64313L10.0706 11.717C11.2582 12.4296 12.7418 12.4296 13.9293 11.717L17.3859 9.64313C17.741 9.43002 17.8562 8.96932 17.6431 8.61413C17.43 8.25895 16.9693 8.14378 16.6141 8.35689L13.1576 10.4308C12.4451 10.8583 11.5549 10.8583 10.8424 10.4308L7.38586 8.35689Z" fill="#0994DC"/>
<path fill-rule="evenodd" clip-rule="evenodd" d="M5.5 2.75C3.15279 2.75 1.25 4.65279 1.25 7V17C1.25 19.3472 3.15279 21.25 5.5 21.25H18.5C20.8472 21.25 22.75 19.3472 22.75 17V7C22.75 4.65279 20.8472 2.75 18.5 2.75H5.5ZM2.75 7C2.75 5.48122 3.98122 4.25 5.5 4.25H18.5C20.0188 4.25 21.25 5.48122 21.25 7V17C21.25 18.5188 20.0188 19.75 18.5 19.75H5.5C3.98122 19.75 2.75 18.5188 2.75 17V7Z" fill="#0994DC"/>
</svg>
