<svg width="56" height="54" viewBox="0 0 56 54" fill="none" xmlns="http://www.w3.org/2000/svg">
<rect width="55.5" height="54" rx="27" fill="#0994DC"/>
<path d="M30.5 20C30.5 19.337 30.7634 18.7011 31.2322 18.2322C31.7011 17.7634 32.337 17.5 33 17.5C33.663 17.5 34.2989 17.7634 34.7678 18.2322C35.2366 18.7011 35.5 19.337 35.5 20V20.25C35.5 20.4489 35.579 20.6397 35.7197 20.7803C35.8603 20.921 36.0511 21 36.25 21C36.4489 21 36.6397 20.921 36.7803 20.7803C36.921 20.6397 37 20.4489 37 20.25V20C37 18.9391 36.5786 17.9217 35.8284 17.1716C35.0783 16.4214 34.0609 16 33 16C31.9391 16 30.9217 16.4214 30.1716 17.1716C29.4214 17.9217 29 18.9391 29 20V22H21.75C20.888 22 20.0614 22.3424 19.4519 22.9519C18.8424 23.5614 18.5 24.388 18.5 25.25V32.75C18.5 33.612 18.8424 34.4386 19.4519 35.0481C20.0614 35.6576 20.888 36 21.75 36H31.25C32.112 36 32.9386 35.6576 33.5481 35.0481C34.1576 34.4386 34.5 33.612 34.5 32.75V25.25C34.5 24.388 34.1576 23.5614 33.5481 22.9519C32.9386 22.3424 32.112 22 31.25 22H30.5V20ZM26.5 30.5C26.1022 30.5 25.7206 30.342 25.4393 30.0607C25.158 29.7794 25 29.3978 25 29C25 28.6022 25.158 28.2206 25.4393 27.9393C25.7206 27.658 26.1022 27.5 26.5 27.5C26.8978 27.5 27.2794 27.658 27.5607 27.9393C27.842 28.2206 28 28.6022 28 29C28 29.3978 27.842 29.7794 27.5607 30.0607C27.2794 30.342 26.8978 30.5 26.5 30.5Z" fill="#E9ECF6"/>
</svg>
