<svg width="56" height="54" viewBox="0 0 56 54" fill="none" xmlns="http://www.w3.org/2000/svg">
<rect width="55.5" height="54" rx="27" fill="#0994DC"/>
<path d="M28.2308 15.5V21.9688C28.2308 22.5406 28.4617 23.0891 28.8729 23.4934C29.284 23.8978 29.8416 24.125 30.4231 24.125H37V36.3438C37 36.9156 36.769 37.4641 36.3579 37.8684C35.9468 38.2728 35.3891 38.5 34.8077 38.5H21.6538C21.0724 38.5 20.5148 38.2728 20.1037 37.8684C19.6925 37.4641 19.4615 36.9156 19.4615 36.3438V31.3125H21.6538C22.0612 31.3125 22.4605 31.2008 22.8069 30.9901C23.1534 30.7794 23.4333 30.4778 23.6152 30.1194L23.6649 30.0216L25.4772 34.2982C25.6388 34.6794 25.9083 35.0069 26.2536 35.2419C26.5989 35.4768 27.0056 35.6093 27.4252 35.6235C27.8449 35.6377 28.2598 35.5331 28.6208 35.3222C28.9817 35.1112 29.2735 34.8027 29.4614 34.4333L31.0472 31.3125H31.8846C32.4661 31.3125 33.0237 31.0853 33.4348 30.6809C33.8459 30.2766 34.0769 29.7281 34.0769 29.1562C34.0769 28.5844 33.8459 28.0359 33.4348 27.6316C33.0237 27.2272 32.4661 27 31.8846 27H29.6923C29.285 27 28.8857 27.1117 28.5392 27.3224C28.1928 27.5331 27.9129 27.8347 27.7309 28.1931L27.6812 28.2909L25.8689 24.0143C25.7074 23.6331 25.4379 23.3056 25.0926 23.0706C24.7472 22.8357 24.3406 22.7032 23.9209 22.689C23.5013 22.6748 23.0863 22.7794 22.7254 22.9903C22.3644 23.2013 22.0726 23.5098 21.8848 23.8792L20.299 27H19.4615V17.6562C19.4615 17.0844 19.6925 16.5359 20.1037 16.1316C20.5148 15.7272 21.0724 15.5 21.6538 15.5H28.2308ZM29.6923 15.8594V21.9688C29.6923 22.1594 29.7693 22.3422 29.9063 22.477C30.0434 22.6118 30.2293 22.6875 30.4231 22.6875H36.6346L29.6923 15.8594ZM24.5214 24.5677C24.4679 24.4401 24.3781 24.3303 24.2629 24.2515C24.1476 24.1727 24.0117 24.1282 23.8714 24.1234C23.7312 24.1185 23.5924 24.1535 23.4718 24.2242C23.3512 24.2948 23.2539 24.3981 23.1914 24.5218L21.2037 28.4375H18.7308C18.537 28.4375 18.3511 28.5132 18.214 28.648C18.077 28.7828 18 28.9656 18 29.1562C18 29.3469 18.077 29.5297 18.214 29.6645C18.3511 29.7993 18.537 29.875 18.7308 29.875H21.6538C21.7894 29.875 21.9224 29.8379 22.0377 29.7678C22.1531 29.6977 22.2464 29.5975 22.3072 29.4782L23.7877 26.5687L26.8277 33.7433C26.8816 33.8702 26.9713 33.9792 27.0863 34.0574C27.2012 34.1356 27.3366 34.1797 27.4762 34.1845C27.6159 34.1894 27.7541 34.1547 27.8744 34.0847C27.9946 34.0146 28.0919 33.9121 28.1548 33.7893L30.1454 29.875H31.8846C32.0784 29.875 32.2643 29.7993 32.4013 29.6645C32.5384 29.5297 32.6154 29.3469 32.6154 29.1562C32.6154 28.9656 32.5384 28.7828 32.4013 28.648C32.2643 28.5132 32.0784 28.4375 31.8846 28.4375H29.6923C29.5567 28.4375 29.4238 28.4746 29.3084 28.5447C29.193 28.6148 29.0997 28.715 29.039 28.8343L27.5585 31.7437L24.5214 24.5677Z" fill="#E9ECF6"/>
</svg>
