<svg width="60" height="58" viewBox="0 0 60 58" fill="none" xmlns="http://www.w3.org/2000/svg">
<rect width="59.5" height="58" rx="29" fill="#0994DC"/>
<path d="M36.4684 40.8829C37.3829 40.6719 38.3084 40.0739 38.3084 38.9489C38.3084 38.4919 38.1794 38.1759 38.0274 37.9059C37.9334 37.7539 37.9454 37.6364 38.0859 37.5779C38.8239 37.2499 39.4334 36.5939 39.4334 35.6444C39.4334 35.1169 39.2929 34.6364 39.0234 34.2969C38.8944 34.1209 38.9179 33.9804 39.1284 33.8519C39.6794 33.5469 40.0314 32.8669 40.0314 32.0934C40.0314 31.5544 39.8554 30.9569 39.5269 30.6639C39.3519 30.4999 39.3869 30.3829 39.5859 30.2189C39.9724 29.9259 40.1834 29.3634 40.1834 28.6954C40.1834 27.5469 39.2929 26.6209 38.1209 26.6209H33.9374C32.8824 26.6209 32.1674 26.0704 32.1674 25.2029C32.1674 23.5859 34.1719 20.6794 34.1719 18.5819C34.1719 17.4919 33.4569 16.8359 32.5309 16.8359C31.6874 16.8359 31.2539 17.4219 30.7969 18.3124C29.0504 21.7574 26.6834 24.5349 24.8904 26.9139C23.3669 28.9529 22.6169 30.6639 22.5819 33.4764C22.5234 37.8009 26.0269 41.0934 31.5349 41.1404L33.1639 41.1524C34.6989 41.1639 35.8239 41.0469 36.4689 40.8824M16.8164 33.5584C16.8164 37.0739 18.9964 40.0154 21.9374 40.0154H24.0349C21.9139 38.4689 20.9414 36.1249 20.9879 33.4414C21.0229 30.4649 22.1834 28.3434 23.2149 27.0544H21.4919C18.8554 27.0544 16.8164 29.9144 16.8164 33.5584Z" fill="#E9ECF6"/>
</svg>
