<svg width="55" height="41" viewBox="0 0 55 41" fill="none" xmlns="http://www.w3.org/2000/svg">
<g clip-path="url(#clip0_241_227)">
<path fill-rule="evenodd" clip-rule="evenodd" d="M0 0V41H55V0H0Z" fill="#2E42A5"/>
<mask id="mask0_241_227" style="mask-type:luminance" maskUnits="userSpaceOnUse" x="0" y="0" width="55" height="41">
<path fill-rule="evenodd" clip-rule="evenodd" d="M0 0V41H55V0H0Z" fill="white"/>
</mask>
<g mask="url(#mask0_241_227)">
<path d="M-6.12402 38.0703L5.97941 43.1594L55.2732 5.53163L61.6583 -2.02946L48.7161 -3.72925L28.6102 12.4845L12.4264 23.411L-6.12402 38.0703Z" fill="white"/>
<path d="M-4.46875 41.6354L1.69984 44.5874L59.3656 -2.73169H50.7083L-4.46875 41.6354Z" fill="#F50100"/>
<path d="M61.1241 38.0703L49.0207 43.1594L-0.273047 5.53163L-6.6582 -2.02946L6.28398 -3.72925L26.3899 12.4845L42.5737 23.411L61.1241 38.0703Z" fill="white"/>
<path d="M60.7117 40.6293L54.5448 43.5813L29.9908 23.3204L22.7102 21.0586L-7.27344 -2.00391H1.38562L31.3503 20.5119L39.3098 23.2248L60.7117 40.6293Z" fill="#F50100"/>
<path fill-rule="evenodd" clip-rule="evenodd" d="M33.9941 -3.4165H21.0073V13.6668H-3.38867V27.3335H21.0073V44.4168H33.9941V27.3335H58.4863V13.6668H33.9941V-3.4165Z" fill="#F50100"/>
<mask id="mask1_241_227" style="mask-type:luminance" maskUnits="userSpaceOnUse" x="-4" y="-4" width="63" height="49">
<path fill-rule="evenodd" clip-rule="evenodd" d="M33.9941 -3.4165H21.0073V13.6668H-3.38867V27.3335H21.0073V44.4168H33.9941V27.3335H58.4863V13.6668H33.9941V-3.4165Z" fill="white"/>
</mask>
<g mask="url(#mask1_241_227)">
<path d="M21.0073 -3.41659V-6.83325H17.5698V-3.41659H21.0073ZM33.9941 -3.41659H37.4316V-6.83325H33.9941V-3.41659ZM21.0073 13.6667V17.0834H24.4448V13.6667H21.0073ZM-3.38867 13.6667V10.2501H-6.82617V13.6667H-3.38867ZM-3.38867 27.3334H-6.82617V30.7501H-3.38867V27.3334ZM21.0073 27.3334H24.4448V23.9167H21.0073V27.3334ZM21.0073 44.4167H17.5698V47.8334H21.0073V44.4167ZM33.9941 44.4167V47.8334H37.4316V44.4167H33.9941ZM33.9941 27.3334V23.9167H30.5566V27.3334H33.9941ZM58.4863 27.3334V30.7501H61.9238V27.3334H58.4863ZM58.4863 13.6667H61.9238V10.2501H58.4863V13.6667ZM33.9941 13.6667H30.5566V17.0834H33.9941V13.6667ZM21.0073 8.15392e-05H33.9941V-6.83325H21.0073V8.15392e-05ZM24.4448 13.6667V-3.41659H17.5698V13.6667H24.4448ZM-3.38867 17.0834H21.0073V10.2501H-3.38867V17.0834ZM0.0488281 27.3334V13.6667H-6.82617V27.3334H0.0488281ZM21.0073 23.9167H-3.38867V30.7501H21.0073V23.9167ZM24.4448 44.4167V27.3334H17.5698V44.4167H24.4448ZM33.9941 41.0001H21.0073V47.8334H33.9941V41.0001ZM30.5566 27.3334V44.4167H37.4316V27.3334H30.5566ZM58.4863 23.9167H33.9941V30.7501H58.4863V23.9167ZM55.0488 13.6667V27.3334H61.9238V13.6667H55.0488ZM33.9941 17.0834H58.4863V10.2501H33.9941V17.0834ZM30.5566 -3.41659V13.6667H37.4316V-3.41659H30.5566Z" fill="white"/>
</g>
</g>
</g>
<defs>
<clipPath id="clip0_241_227">
<rect width="55" height="41" rx="5" fill="white"/>
</clipPath>
</defs>
</svg>
