<svg width="56" height="42" viewBox="0 0 56 42" fill="none" xmlns="http://www.w3.org/2000/svg">
<path fill-rule="evenodd" clip-rule="evenodd" d="M0 0H56V42H0V0Z" fill="#F7FCFF"/>
<path fill-rule="evenodd" clip-rule="evenodd" d="M0 25.6672V29.1672H56V25.6672H0ZM0 32.0827V35.5827H56V32.0827H0ZM0 12.8328V16.3328H56V12.8328H0ZM0 38.5V42H56V38.5H0ZM0 19.25V22.75H56V19.25H0ZM0 0V3.5H56V0H0ZM0 6.41725V9.91725H56V6.41725H0Z" fill="#E31D1C"/>
<path d="M0 0H35V22.75H0V0Z" fill="#2E42A5"/>
<path fill-rule="evenodd" clip-rule="evenodd" d="M3.01347 5.14318L1.74297 6.03393L2.17172 4.44843L1.04297 3.44393H2.51822L3.01172 2.14893L3.59097 3.44393H4.84747L3.86047 4.44843L4.24197 6.03393L3.01347 5.14318ZM10.0135 5.14318L8.74297 6.03393L9.17172 4.44843L8.04472 3.44393H9.51822L10.0117 2.14893L10.591 3.44393H11.8475L10.8605 4.44843L11.242 6.03393L10.0135 5.14318ZM15.743 6.03393L17.0135 5.14143L18.242 6.03393L17.8605 4.44843L18.8475 3.44393H17.591L17.0117 2.14893L16.5182 3.44393H15.0447L16.1717 4.44843L15.743 6.03393ZM24.0135 5.14143L22.743 6.03393L23.1717 4.44843L22.0447 3.44393H23.5182L24.0117 2.14893L24.591 3.44393H25.8475L24.8605 4.44843L25.242 6.03393L24.0135 5.14143ZM1.74297 13.0357L3.01347 12.1432L4.24197 13.0357L3.86047 11.4502L4.84747 10.4457H3.59097L3.01172 9.15068L2.51822 10.4457H1.04297L2.17172 11.4502L1.74297 13.0357ZM10.0135 12.1432L8.74297 13.0357L9.17172 11.4502L8.04472 10.4457H9.51822L10.0117 9.15068L10.591 10.4457H11.8475L10.8605 11.4502L11.242 13.0357L10.0135 12.1432ZM15.743 13.0357L17.0135 12.1432L18.242 13.0357L17.8605 11.4502L18.8475 10.4457H17.591L17.0117 9.15068L16.5182 10.4457H15.0447L16.1717 11.4502L15.743 13.0357ZM24.0135 12.1432L22.743 13.0357L23.1717 11.4502L22.0447 10.4457H23.5182L24.0117 9.15068L24.591 10.4457H25.8475L24.8605 11.4502L25.242 13.0357L24.0135 12.1432ZM1.74297 20.0357L3.01347 19.1432L4.24197 20.0357L3.86047 18.4502L4.84747 17.4457H3.59097L3.01172 16.1507L2.51822 17.4457H1.04297L2.17172 18.4502L1.74297 20.0357ZM10.0135 19.1432L8.74297 20.0357L9.17172 18.4502L8.04472 17.4457H9.51822L10.0117 16.1507L10.591 17.4457H11.8475L10.8605 18.4502L11.242 20.0357L10.0135 19.1432ZM15.743 20.0357L17.0135 19.1432L18.242 20.0357L17.8605 18.4502L18.8475 17.4457H17.591L17.0117 16.1507L16.5182 17.4457H15.0447L16.1717 18.4502L15.743 20.0357ZM24.0135 19.1432L22.743 20.0357L23.1717 18.4502L22.0447 17.4457H23.5182L24.0117 16.1507L24.591 17.4457H25.8475L24.8605 18.4502L25.242 20.0357L24.0135 19.1432ZM29.743 6.03568L31.0135 5.14318L32.242 6.03568L31.8605 4.45018L32.8475 3.44568H31.591L31.0117 2.15068L30.5182 3.44568H29.043L30.1717 4.45018L29.743 6.03568ZM31.0135 12.1432L29.743 13.0357L30.1717 11.4502L29.043 10.4457H30.5182L31.0117 9.15068L31.591 10.4457H32.8475L31.8605 11.4502L32.242 13.0357L31.0135 12.1432ZM29.743 20.0357L31.0135 19.1432L32.242 20.0357L31.8605 18.4502L32.8475 17.4457H31.591L31.0117 16.1507L30.5182 17.4457H29.043L30.1717 18.4502L29.743 20.0357ZM6.51347 8.64143L5.24297 9.53393L5.67172 7.94843L4.54297 6.94393H6.01822L6.51172 5.64893L7.09097 6.94393H8.34747L7.36047 7.94843L7.74197 9.53393L6.51347 8.64143ZM12.243 9.53393L13.5135 8.64143L14.742 9.53393L14.3605 7.94843L15.3475 6.94393H14.091L13.5117 5.64893L13.0182 6.94393H11.543L12.6717 7.94843L12.243 9.53393ZM20.5135 8.64143L19.243 9.53393L19.6717 7.94843L18.5447 6.94393H20.0182L20.5117 5.64893L21.091 6.94393H22.3475L21.3605 7.94843L21.742 9.53393L20.5135 8.64143ZM5.24297 16.5339L6.51347 15.6414L7.74197 16.5339L7.36047 14.9484L8.34747 13.9439H7.09097L6.51172 12.6489L6.01822 13.9439H4.54297L5.67172 14.9484L5.24297 16.5339ZM13.5135 15.6414L12.243 16.5339L12.6717 14.9484L11.5447 13.9439H13.0182L13.5117 12.6489L14.091 13.9439H15.3475L14.3605 14.9484L14.742 16.5339L13.5135 15.6414ZM19.243 16.5339L20.5135 15.6414L21.742 16.5339L21.3605 14.9484L22.3475 13.9439H21.091L20.5117 12.6489L20.0182 13.9439H18.5447L19.6717 14.9484L19.243 16.5339ZM27.5135 8.64143L26.243 9.53393L26.6717 7.94843L25.5447 6.94393H27.0182L27.5117 5.64893L28.091 6.94393H29.3475L28.3605 7.94843L28.742 9.53393L27.5135 8.64143ZM26.243 16.5339L27.5135 15.6414L28.742 16.5339L28.3605 14.9484L29.3475 13.9439H28.091L27.5117 12.6489L27.0182 13.9439H25.5447L26.6717 14.9484L26.243 16.5339Z" fill="#F7FCFF"/>
</svg>
