<svg width="56" height="54" viewBox="0 0 56 54" fill="none" xmlns="http://www.w3.org/2000/svg">
<rect width="55.5" height="54" rx="27" fill="#0994DC"/>
<path d="M21.5 29L23.793 26.707C23.9805 26.5195 24.2348 26.4142 24.5 26.4142C24.7652 26.4142 25.0195 26.5195 25.207 26.707L26.793 28.293C26.9805 28.4805 27.2348 28.5858 27.5 28.5858C27.7652 28.5858 28.0195 28.4805 28.207 28.293L31.5 25M31.5 25V27.5M31.5 25H29" stroke="#E9ECF6" stroke-width="1.5" stroke-linecap="round" stroke-linejoin="round"/>
<path d="M36.5 27C36.5 31.714 36.5 34.071 35.035 35.535C33.572 37 31.214 37 26.5 37C21.786 37 19.429 37 17.964 35.535C16.5 34.072 16.5 31.714 16.5 27C16.5 22.286 16.5 19.929 17.964 18.464C19.43 17 21.786 17 26.5 17C31.214 17 33.571 17 35.035 18.464C36.009 19.438 36.335 20.807 36.445 23" stroke="#E9ECF6" stroke-width="1.5" stroke-linecap="round"/>
</svg>
