<svg width="56" height="54" viewBox="0 0 56 54" fill="none" xmlns="http://www.w3.org/2000/svg">
<rect width="55.5" height="54" rx="27" fill="#0994DC"/>
<path d="M35.5 22C35.5 24.21 31.47 26 26.5 26C21.53 26 17.5 24.21 17.5 22M35.5 22C35.5 19.79 31.47 18 26.5 18C21.53 18 17.5 19.79 17.5 22M35.5 22V27M17.5 22V27M35.5 27C35.5 29.21 31.47 31 26.5 31C21.53 31 17.5 29.21 17.5 27M35.5 27V32C35.5 34.21 31.47 36 26.5 36C21.53 36 17.5 34.21 17.5 32V27" stroke="#E9ECF6" stroke-width="2" stroke-linecap="round" stroke-linejoin="round"/>
</svg>
