<svg width="56" height="54" viewBox="0 0 56 54" fill="none" xmlns="http://www.w3.org/2000/svg">
<rect width="55.5" height="54" rx="27" fill="#0994DC"/>
<path d="M21.67 18.25H27.33C27.865 18.25 28.31 18.25 28.675 18.28C29.055 18.31 29.411 18.378 29.748 18.55C30.2656 18.8137 30.6863 19.2344 30.95 19.752C31.122 20.089 31.19 20.445 31.22 20.825C31.25 21.19 31.25 21.635 31.25 22.17V25.25C31.25 25.4489 31.171 25.6397 31.0303 25.7803C30.8897 25.921 30.6989 26 30.5 26C30.3011 26 30.1103 25.921 29.9697 25.7803C29.829 25.6397 29.75 25.4489 29.75 25.25V22.2C29.75 21.628 29.75 21.243 29.725 20.947C29.702 20.66 29.66 20.523 29.614 20.433C29.4944 20.1976 29.3032 20.0061 29.068 19.886C28.977 19.84 28.84 19.798 28.553 19.775C28.257 19.751 27.873 19.75 27.3 19.75H21.7C21.128 19.75 20.743 19.75 20.447 19.775C20.16 19.798 20.023 19.84 19.933 19.886C19.6974 20.0059 19.5059 20.1974 19.386 20.433C19.34 20.523 19.298 20.66 19.275 20.947C19.251 21.243 19.25 21.627 19.25 22.2V31.8C19.25 32.372 19.25 32.757 19.275 33.052C19.298 33.34 19.34 33.477 19.386 33.567C19.5 33.79 19.676 33.973 19.894 34.093C19.91 34.097 19.9453 34.1033 20 34.112C20.1167 34.1293 20.2753 34.1453 20.476 34.16C20.874 34.19 21.386 34.21 21.93 34.223C23.015 34.25 24.19 34.25 24.75 34.25C24.9489 34.25 25.1397 34.329 25.2803 34.4697C25.421 34.6103 25.5 34.8011 25.5 35C25.5 35.1989 25.421 35.3897 25.2803 35.5303C25.1397 35.671 24.9489 35.75 24.75 35.75H24.748C24.188 35.75 22.998 35.75 21.893 35.723C21.3836 35.7125 20.8744 35.6901 20.366 35.656C20.1703 35.6432 19.9752 35.6232 19.781 35.596C19.5979 35.5748 19.4191 35.5255 19.251 35.45C18.7341 35.1867 18.3137 34.7667 18.05 34.25C17.878 33.912 17.81 33.556 17.78 33.176C17.75 32.811 17.75 32.366 17.75 31.831V22.17C17.75 21.635 17.75 21.19 17.78 20.825C17.81 20.445 17.878 20.089 18.05 19.752C18.3137 19.2344 18.7344 18.8137 19.252 18.55C19.589 18.378 19.945 18.31 20.325 18.28C20.69 18.25 21.135 18.25 21.67 18.25Z" fill="#E9ECF6"/>
<path d="M28.871 27.25H33.129C33.524 27.25 33.865 27.25 34.146 27.273C34.443 27.297 34.738 27.351 35.021 27.495C35.445 27.711 35.789 28.055 36.005 28.479C36.149 28.762 36.203 29.057 36.227 29.354C36.25 29.634 36.25 29.976 36.25 30.371V32.629C36.25 33.024 36.25 33.365 36.227 33.646C36.2115 33.9495 36.1361 34.2469 36.005 34.521C35.7895 34.9446 35.4454 35.289 35.022 35.505C34.738 35.649 34.442 35.703 34.146 35.727C33.866 35.75 33.524 35.75 33.129 35.75H28.87C28.475 35.75 28.134 35.75 27.853 35.727C27.5495 35.7115 27.2521 35.6361 26.978 35.505C26.5544 35.2895 26.21 34.9454 25.994 34.522C25.8628 34.2476 25.7873 33.9498 25.772 33.646C25.749 33.366 25.749 33.024 25.749 32.629V30.37C25.749 29.975 25.749 29.634 25.772 29.353C25.7875 29.0495 25.8629 28.7521 25.994 28.478C26.2098 28.0543 26.5543 27.7098 26.978 27.494C27.2521 27.3629 27.5495 27.2875 27.853 27.272C28.133 27.249 28.475 27.249 28.87 27.249M27.975 28.767C27.771 28.784 27.695 28.812 27.658 28.831C27.5173 28.9028 27.4028 29.0173 27.331 29.158C27.311 29.196 27.284 29.271 27.267 29.475L27.265 29.499H34.733L34.731 29.475C34.714 29.271 34.686 29.195 34.667 29.158C34.5949 29.0171 34.4801 28.9027 34.339 28.831C34.302 28.811 34.227 28.784 34.023 28.767C33.7153 28.7501 33.4071 28.744 33.099 28.749H28.899C28.467 28.749 28.187 28.749 27.975 28.767ZM34.75 31.5H27.25V32.6C27.25 33.032 27.25 33.312 27.268 33.524C27.285 33.728 27.313 33.804 27.332 33.84C27.4037 33.9811 27.5181 34.0959 27.659 34.168C27.697 34.188 27.772 34.215 27.976 34.232C28.188 34.249 28.468 34.25 28.9 34.25H33.1C33.532 34.25 33.812 34.25 34.024 34.232C34.228 34.215 34.304 34.187 34.34 34.168C34.4812 34.0961 34.5961 33.9812 34.668 33.84C34.688 33.803 34.715 33.728 34.732 33.524C34.749 33.312 34.75 33.032 34.75 32.6V31.5ZM21 21.25C20.8011 21.25 20.6103 21.329 20.4697 21.4697C20.329 21.6103 20.25 21.8011 20.25 22C20.25 22.1989 20.329 22.3897 20.4697 22.5303C20.6103 22.671 20.8011 22.75 21 22.75H25C25.1989 22.75 25.3897 22.671 25.5303 22.5303C25.671 22.3897 25.75 22.1989 25.75 22C25.75 21.8011 25.671 21.6103 25.5303 21.4697C25.3897 21.329 25.1989 21.25 25 21.25H21ZM20.25 25C20.25 24.8011 20.329 24.6103 20.4697 24.4697C20.6103 24.329 20.8011 24.25 21 24.25H28C28.1989 24.25 28.3897 24.329 28.5303 24.4697C28.671 24.6103 28.75 24.8011 28.75 25C28.75 25.1989 28.671 25.3897 28.5303 25.5303C28.3897 25.671 28.1989 25.75 28 25.75H21C20.8011 25.75 20.6103 25.671 20.4697 25.5303C20.329 25.3897 20.25 25.1989 20.25 25ZM21 27.25C20.8011 27.25 20.6103 27.329 20.4697 27.4697C20.329 27.6103 20.25 27.8011 20.25 28C20.25 28.1989 20.329 28.3897 20.4697 28.5303C20.6103 28.671 20.8011 28.75 21 28.75H24.5C24.6989 28.75 24.8897 28.671 25.0303 28.5303C25.171 28.3897 25.25 28.1989 25.25 28C25.25 27.8011 25.171 27.6103 25.0303 27.4697C24.8897 27.329 24.6989 27.25 24.5 27.25H21ZM20.25 32C20.25 31.8011 20.329 31.6103 20.4697 31.4697C20.6103 31.329 20.8011 31.25 21 31.25H23C23.1989 31.25 23.3897 31.329 23.5303 31.4697C23.671 31.6103 23.75 31.8011 23.75 32C23.75 32.1989 23.671 32.3897 23.5303 32.5303C23.3897 32.671 23.1989 32.75 23 32.75H21C20.8011 32.75 20.6103 32.671 20.4697 32.5303C20.329 32.3897 20.25 32.1989 20.25 32Z" fill="#E9ECF6"/>
</svg>
