<svg width="56" height="54" viewBox="0 0 56 54" fill="none" xmlns="http://www.w3.org/2000/svg">
<rect width="55.5" height="54" rx="27" fill="#0994DC"/>
<path d="M27.5 35.693C26.595 36.321 25.14 35.985 24.825 34.683C24.7611 34.4192 24.6358 34.1742 24.4593 33.968C24.2828 33.7618 24.0601 33.6001 23.8093 33.4963C23.5586 33.3924 23.2868 33.3491 23.0162 33.3701C22.7456 33.3911 22.4838 33.4757 22.252 33.617C20.709 34.557 18.942 32.791 19.882 31.247C20.0231 31.0153 20.1076 30.7537 20.1285 30.4832C20.1494 30.2128 20.1062 29.9412 20.0025 29.6906C19.8987 29.44 19.7373 29.2174 19.5313 29.0409C19.3253 28.8645 19.0806 28.7391 18.817 28.675C17.061 28.249 17.061 25.751 18.817 25.325C19.0808 25.2611 19.3258 25.1358 19.532 24.9593C19.7382 24.7828 19.8999 24.5601 20.0037 24.3093C20.1076 24.0586 20.1509 23.7868 20.1299 23.5162C20.1089 23.2456 20.0243 22.9838 19.883 22.752C18.943 21.209 20.709 19.442 22.253 20.382C23.253 20.99 24.549 20.452 24.825 19.317C25.251 17.561 27.749 17.561 28.175 19.317C28.2389 19.5808 28.3642 19.8258 28.5407 20.032C28.7172 20.2382 28.9399 20.3999 29.1907 20.5037C29.4414 20.6076 29.7132 20.6509 29.9838 20.6299C30.2544 20.6089 30.5162 20.5243 30.748 20.383C32.291 19.443 34.058 21.209 33.118 22.753C32.9769 22.9847 32.8924 23.2463 32.8715 23.5168C32.8506 23.7872 32.8938 24.0588 32.9975 24.3094C33.1013 24.56 33.2627 24.7826 33.4687 24.9591C33.6747 25.1355 33.9194 25.2609 34.183 25.325C35.675 25.687 35.899 27.544 34.857 28.355" stroke="#E9ECF6" stroke-width="2" stroke-linecap="round" stroke-linejoin="round"/>
<path d="M23.5 27C23.5 27.7956 23.8161 28.5587 24.3787 29.1213C24.9413 29.6839 25.7044 30 26.5 30C27.2956 30 28.0587 29.6839 28.6213 29.1213C29.1839 28.5587 29.5 27.7956 29.5 27C29.5 26.2044 29.1839 25.4413 28.6213 24.8787C28.0587 24.3161 27.2956 24 26.5 24C25.7044 24 24.9413 24.3161 24.3787 24.8787C23.8161 25.4413 23.5 26.2044 23.5 27ZM31.5 37L36.5 34L31.5 31V37Z" stroke="#E9ECF6" stroke-width="2" stroke-linecap="round" stroke-linejoin="round"/>
</svg>
