<svg width="60" height="58" viewBox="0 0 60 58" fill="none" xmlns="http://www.w3.org/2000/svg">
<rect width="59.5" height="58" rx="29" fill="#0994DC"/>
<path d="M21.422 34.3965H35.59C38.578 34.3965 40.98 31.9705 40.98 28.994C40.98 26.029 38.578 23.6035 35.59 23.6035C32.6135 23.6035 30.199 26.0295 30.199 28.994C30.1943 30.3786 30.7281 31.7108 31.6875 32.709H25.3125C26.2671 31.7076 26.8 30.3775 26.801 28.994C26.801 26.029 24.3985 23.6035 21.422 23.6035C18.4335 23.6035 16.0195 26.0295 16.0195 28.994C16.0195 31.9705 18.4455 34.3965 21.422 34.3965ZM21.422 32.533C20.9569 32.5344 20.4961 32.4438 20.0661 32.2664C19.6361 32.0891 19.2454 31.8285 18.9165 31.4996C18.5876 31.1707 18.327 30.78 18.1496 30.35C17.9722 29.92 17.8816 29.4592 17.883 28.994C17.883 27.049 19.453 25.467 21.422 25.467C23.379 25.467 24.961 27.049 24.961 28.994C24.9616 29.4589 24.8704 29.9193 24.6927 30.349C24.515 30.7786 24.2544 31.1689 23.9257 31.4976C23.5969 31.8264 23.2066 32.087 22.777 32.2647C22.3474 32.4424 21.8869 32.5335 21.422 32.533ZM35.59 32.533C33.633 32.533 32.0625 30.951 32.0625 28.994C32.0625 27.049 33.6325 25.467 35.59 25.467C37.5475 25.467 39.129 27.049 39.129 28.994C39.1296 29.4589 39.0384 29.9193 38.8607 30.349C38.683 30.7786 38.4224 31.1689 38.0937 31.4976C37.7649 31.8264 37.3746 32.087 36.945 32.2647C36.5154 32.4424 36.0549 32.5335 35.59 32.533Z" fill="#E9ECF6"/>
</svg>
