<svg width="56" height="54" viewBox="0 0 56 54" fill="none" xmlns="http://www.w3.org/2000/svg">
<rect width="55.5" height="54" rx="27" fill="#0994DC"/>
<path d="M23.5 36H29.5M23.5 36V31M23.5 36H18.1C17.9409 36 17.7883 35.9368 17.6757 35.8243C17.5632 35.7117 17.5 35.5591 17.5 35.4V31.6C17.5 31.4409 17.5632 31.2883 17.6757 31.1757C17.7883 31.0632 17.9409 31 18.1 31H23.5M29.5 36V24M29.5 36H34.9C35.0591 36 35.2117 35.9368 35.3243 35.8243C35.4368 35.7117 35.5 35.5591 35.5 35.4V18.6C35.5 18.4409 35.4368 18.2883 35.3243 18.1757C35.2117 18.0632 35.0591 18 34.9 18H30.1C29.9409 18 29.7883 18.0632 29.6757 18.1757C29.5632 18.2883 29.5 18.4409 29.5 18.6V24M23.5 31V24.6C23.5 24.4409 23.5632 24.2883 23.6757 24.1757C23.7883 24.0632 23.9409 24 24.1 24H29.5" stroke="#E9ECF6" stroke-width="1.5"/>
</svg>
