<svg width="56" height="54" viewBox="0 0 56 54" fill="none" xmlns="http://www.w3.org/2000/svg">
<rect width="55.5" height="54" rx="27" fill="#0994DC"/>
<path d="M22.5 31V26M26.5 31V23M30.5 31V29M32.5 19H20.5C19.9696 19 19.4609 19.2107 19.0858 19.5858C18.7107 19.9609 18.5 20.4696 18.5 21V33C18.5 33.5304 18.7107 34.0391 19.0858 34.4142C19.4609 34.7893 19.9696 35 20.5 35H32.5C33.0304 35 33.5391 34.7893 33.9142 34.4142C34.2893 34.0391 34.5 33.5304 34.5 33V21C34.5 20.4696 34.2893 19.9609 33.9142 19.5858C33.5391 19.2107 33.0304 19 32.5 19Z" stroke="#E9ECF6" stroke-width="2" stroke-linecap="round" stroke-linejoin="round"/>
</svg>
