<svg width="56" height="54" viewBox="0 0 56 54" fill="none" xmlns="http://www.w3.org/2000/svg">
<rect width="55.5" height="54" rx="27" fill="#0994DC"/>
<path d="M32.5 16.5L28 21L29.05 22.05L31.75 19.35V29.25C31.75 33 28.75 36 25 36C23.8 36 22.675 35.7 21.775 35.175C22.075 35.25 22.375 35.25 22.75 35.25C26.05 35.25 28.75 32.55 28.75 29.25C28.75 25.95 26.05 23.25 22.75 23.25C19.45 23.25 16.75 25.95 16.75 29.25C16.75 33.825 20.425 37.5 25 37.5C29.575 37.5 33.25 33.825 33.25 29.25V19.35L35.95 22.05L37 21L32.5 16.5ZM18.25 29.7V29.25C18.25 26.775 20.275 24.75 22.75 24.75C25.225 24.75 27.25 26.775 27.25 29.25C27.25 31.725 25.225 33.75 22.75 33.75C20.425 33.75 18.475 31.95 18.25 29.7Z" fill="#E9ECF6"/>
</svg>
