<svg width="56" height="54" viewBox="0 0 56 54" fill="none" xmlns="http://www.w3.org/2000/svg">
<rect width="55.5" height="54" rx="27" fill="#0994DC"/>
<path d="M17.964 31.828C16.5 30.657 16.5 29.771 16.5 26C16.5 22.229 16.5 20.343 17.964 19.172C19.43 18 21.786 18 26.5 18C31.214 18 33.571 18 35.035 19.172C36.499 20.344 36.5 22.229 36.5 26C36.5 29.771 36.5 30.657 35.035 31.828C33.572 33 31.214 33 26.5 33C23.99 33 22.7 34.738 20.5 36V32.788C19.406 32.625 18.601 32.338 17.964 31.828Z" stroke="#E9ECF6" stroke-width="1.5" stroke-linecap="round" stroke-linejoin="round"/>
<path d="M22.5 24.514H28.5C29.0304 24.514 29.5391 24.7247 29.9142 25.0998C30.2893 25.4749 30.5 25.9836 30.5 26.514V29M22.5 24.514L24.89 27.027M22.5 24.514L24.89 22" stroke="#E9ECF6" stroke-width="1.5" stroke-linecap="round" stroke-linejoin="round"/>
</svg>
