<svg width="56" height="54" viewBox="0 0 56 54" fill="none" xmlns="http://www.w3.org/2000/svg">
<rect width="55.5" height="54" rx="27" fill="#0994DC"/>
<path d="M21.7001 26.2H20.9001V27.8H21.7001V26.2ZM31.3001 27.8H32.1001V26.2H31.3001V27.8ZM28.1001 31H27.3001V32.6H28.1001V31ZM31.3001 32.6H32.1001V31H31.3001V32.6ZM21.7001 21.4H20.9001V23H21.7001V21.4ZM24.9001 23H25.7001V21.4H24.9001V23ZM31.3001 15.8L31.8665 15.2336L31.6313 15H31.3001V15.8ZM36.1001 20.6H36.9001V20.2688L36.6665 20.0336L36.1001 20.6ZM21.7001 27.8H31.3001V26.2H21.7001V27.8ZM28.1001 32.6H31.3001V31H28.1001V32.6ZM21.7001 23H24.9001V21.4H21.7001V23ZM34.5001 37.4H18.5001V39H34.5001V37.4ZM17.7001 36.6V17.4H16.1001V36.6H17.7001ZM18.5001 16.6H31.3001V15H18.5001V16.6ZM35.3001 20.6V36.6H36.9001V20.6H35.3001ZM30.7337 16.3664L35.5337 21.1664L36.6665 20.0336L31.8665 15.2336L30.7337 16.3664ZM18.5001 37.4C18.2879 37.4 18.0844 37.3157 17.9344 37.1657C17.7844 37.0157 17.7001 36.8122 17.7001 36.6H16.1001C16.1001 37.2365 16.353 37.847 16.803 38.2971C17.2531 38.7471 17.8636 39 18.5001 39V37.4ZM34.5001 39C35.1366 39 35.7471 38.7471 36.1972 38.2971C36.6472 37.847 36.9001 37.2365 36.9001 36.6H35.3001C35.3001 36.8122 35.2158 37.0157 35.0658 37.1657C34.9158 37.3157 34.7123 37.4 34.5001 37.4V39ZM17.7001 17.4C17.7001 17.1878 17.7844 16.9843 17.9344 16.8343C18.0844 16.6843 18.2879 16.6 18.5001 16.6V15C17.8636 15 17.2531 15.2529 16.803 15.7029C16.353 16.153 16.1001 16.7635 16.1001 17.4H17.7001Z" fill="#E9ECF6"/>
</svg>
