<svg width="56" height="54" viewBox="0 0 56 54" fill="none" xmlns="http://www.w3.org/2000/svg">
<rect width="55.5" height="54" rx="27" fill="#0994DC"/>
<path d="M30.25 28C30.25 27.8011 30.171 27.6103 30.0303 27.4697C29.8897 27.329 29.6989 27.25 29.5 27.25H23.5C23.3011 27.25 23.1103 27.329 22.9697 27.4697C22.829 27.6103 22.75 27.8011 22.75 28C22.75 28.1989 22.829 28.3897 22.9697 28.5303C23.1103 28.671 23.3011 28.75 23.5 28.75H29.5C29.6989 28.75 29.8897 28.671 30.0303 28.5303C30.171 28.3897 30.25 28.1989 30.25 28ZM30.25 32C30.25 31.8011 30.171 31.6103 30.0303 31.4697C29.8897 31.329 29.6989 31.25 29.5 31.25H23.5C23.3011 31.25 23.1103 31.329 22.9697 31.4697C22.829 31.6103 22.75 31.8011 22.75 32C22.75 32.1989 22.829 32.3897 22.9697 32.5303C23.1103 32.671 23.3011 32.75 23.5 32.75H29.5C29.6989 32.75 29.8897 32.671 30.0303 32.5303C30.171 32.3897 30.25 32.1989 30.25 32Z" fill="#E9ECF6"/>
<path fill-rule="evenodd" clip-rule="evenodd" d="M21.5 17.25C20.7707 17.25 20.0712 17.5397 19.5555 18.0555C19.0397 18.5712 18.75 19.2707 18.75 20V34C18.75 34.7293 19.0397 35.4288 19.5555 35.9445C20.0712 36.4603 20.7707 36.75 21.5 36.75H31.5C32.2293 36.75 32.9288 36.4603 33.4445 35.9445C33.9603 35.4288 34.25 34.7293 34.25 34V22.968C34.25 22.587 34.126 22.217 33.896 21.913L30.898 17.945C30.7349 17.7291 30.5239 17.554 30.2817 17.4334C30.0395 17.3128 29.7726 17.25 29.502 17.25H21.5ZM20.25 20C20.25 19.31 20.81 18.75 21.5 18.75H28.75V23.147C28.75 23.561 29.086 23.897 29.5 23.897H32.75V34C32.75 34.69 32.19 35.25 31.5 35.25H21.5C20.81 35.25 20.25 34.69 20.25 34V20Z" fill="#E9ECF6"/>
</svg>
