<svg width="56" height="54" viewBox="0 0 56 54" fill="none" xmlns="http://www.w3.org/2000/svg">
<rect width="55.5" height="54" rx="27" fill="#0994DC"/>
<g clip-path="url(#clip0_390_1238)">
<path fill-rule="evenodd" clip-rule="evenodd" d="M25.6429 17.1427C23.2559 17.1427 20.9667 18.091 19.2789 19.7788C17.5911 21.4666 16.6429 23.7558 16.6429 26.1427C16.6429 28.5297 17.5911 30.8189 19.2789 32.5067C20.9667 34.1945 23.2559 35.1427 25.6429 35.1427C28.0298 35.1427 30.319 34.1945 32.0068 32.5067C33.6946 30.8189 34.6429 28.5297 34.6429 26.1427C34.6429 23.7558 33.6946 21.4666 32.0068 19.7788C30.319 18.091 28.0298 17.1427 25.6429 17.1427ZM14.5 26.1427C14.5003 24.3832 14.9173 22.6487 15.7169 21.0813C16.5165 19.5139 17.6759 18.1582 19.1002 17.125C20.5245 16.0919 22.1732 15.4107 23.9114 15.1373C25.6495 14.8639 27.4278 15.006 29.1005 15.552C30.7732 16.098 32.2928 17.0323 33.5349 18.2785C34.7771 19.5248 35.7065 21.0475 36.247 22.7219C36.7875 24.3964 36.9237 26.1751 36.6446 27.9124C36.3655 29.6496 35.679 31.2961 34.6411 32.717L37.9977 36.0736C38.31 36.3969 38.4828 36.83 38.4789 37.2794C38.475 37.7289 38.2947 38.1589 37.9768 38.4767C37.659 38.7946 37.229 38.9749 36.7795 38.9788C36.3301 38.9827 35.897 38.8099 35.5737 38.4976L32.2171 35.141C30.5557 36.3551 28.5906 37.0854 26.5396 37.251C24.4885 37.4166 22.4317 37.011 20.597 36.0792C18.7624 35.1474 17.2216 33.7258 16.1454 31.9719C15.0692 30.2181 14.4997 28.2005 14.5 26.1427ZM24.4086 23.6227C24.6357 23.379 24.7593 23.0567 24.7534 22.7236C24.7476 22.3905 24.6126 22.0727 24.3771 21.8371C24.1415 21.6015 23.8237 21.4666 23.4906 21.4607C23.1575 21.4549 22.8352 21.5785 22.5914 21.8056L19.1629 25.2342C18.9221 25.4752 18.7868 25.802 18.7868 26.1427C18.7868 26.4835 18.9221 26.8102 19.1629 27.0513L22.5914 30.4799C22.8352 30.707 23.1575 30.8306 23.4906 30.8248C23.8237 30.8189 24.1415 30.684 24.3771 30.4484C24.6126 30.2128 24.7476 29.895 24.7534 29.5619C24.7593 29.2288 24.6357 28.9065 24.4086 28.6627L21.8886 26.1427L24.4086 23.6227ZM28.6943 21.8056C28.4506 21.5785 28.1282 21.4549 27.7951 21.4607C27.462 21.4666 27.1442 21.6015 26.9086 21.8371C26.6731 22.0727 26.5381 22.3905 26.5323 22.7236C26.5264 23.0567 26.65 23.379 26.8771 23.6227L29.3971 26.1427L26.8771 28.6627C26.65 28.9065 26.5264 29.2288 26.5323 29.5619C26.5381 29.895 26.6731 30.2128 26.9086 30.4484C27.1442 30.684 27.462 30.8189 27.7951 30.8248C28.1282 30.8306 28.4506 30.707 28.6943 30.4799L32.1229 27.0513C32.3636 26.8102 32.4989 26.4835 32.4989 26.1427C32.4989 25.802 32.3636 25.4752 32.1229 25.2342L28.6943 21.8056Z" fill="#E9ECF6"/>
</g>
<defs>
<clipPath id="clip0_390_1238">
<rect width="24" height="24" fill="white" transform="translate(14.5 15)"/>
</clipPath>
</defs>
</svg>
