<svg width="56" height="54" viewBox="0 0 56 54" fill="none" xmlns="http://www.w3.org/2000/svg">
<rect width="55.5" height="54" rx="27" fill="#0994DC"/>
<path d="M27.13 17C32.66 17 37.14 21.5 37.14 27C37.14 32.5 32.66 37 27.13 37C23.62 37 20.55 35.18 18.76 32.43L20.34 31.18C21.75 33.47 24.26 35 27.14 35C29.2617 35 31.2966 34.1571 32.7969 32.6569C34.2971 31.1566 35.14 29.1217 35.14 27C35.14 24.8783 34.2971 22.8434 32.7969 21.3431C31.2966 19.8429 29.2617 19 27.14 19C23.06 19 19.7 22.06 19.21 26H21.97L18.23 29.73L14.5 26H17.19C17.69 20.95 21.95 17 27.13 17ZM30.09 25.24C30.59 25.25 31 25.65 31 26.16V30.77C31 31.27 30.59 31.69 30.08 31.69H24.55C24.04 31.69 23.63 31.27 23.63 30.77V26.16C23.63 25.65 24.04 25.25 24.54 25.24V24.23C24.54 22.7 25.79 21.46 27.31 21.46C28.84 21.46 30.09 22.7 30.09 24.23V25.24ZM27.31 22.86C26.56 22.86 25.94 23.47 25.94 24.23V25.24H28.69V24.23C28.69 23.47 28.07 22.86 27.31 22.86Z" fill="#E9ECF6"/>
</svg>
