<svg width="56" height="54" viewBox="0 0 56 54" fill="none" xmlns="http://www.w3.org/2000/svg">
<rect width="55.5" height="54" rx="27" fill="#0994DC"/>
<path fill-rule="evenodd" clip-rule="evenodd" d="M26.5 17C25.3426 16.9998 24.2098 17.3343 23.2381 17.9633C22.2665 18.5923 21.4976 19.4889 21.024 20.545C20.9566 20.6964 20.8876 20.8471 20.817 20.997L20.797 20.998C20.733 21 20.646 21 20.5 21C19.4391 21 18.4217 21.4214 17.6716 22.1716C16.9214 22.9217 16.5 23.9391 16.5 25C16.5 26.0609 16.9214 27.0783 17.6716 27.8284C18.4217 28.5786 19.4391 29 20.5 29H20.672L22.672 27H20.5C19.9696 27 19.4609 26.7893 19.0858 26.4142C18.7107 26.0391 18.5 25.5304 18.5 25C18.5 24.4696 18.7107 23.9609 19.0858 23.5858C19.4609 23.2107 19.9696 23 20.5 23H20.564C20.772 23 21.014 23.001 21.214 22.96C21.463 22.9174 21.7009 22.8256 21.914 22.69C22.155 22.534 22.321 22.34 22.447 22.163C22.5242 22.049 22.5915 21.9285 22.648 21.803C22.7013 21.6917 22.7667 21.549 22.844 21.375L22.848 21.365C23.1634 20.6602 23.6761 20.0617 24.3241 19.6417C24.9721 19.2217 25.7278 18.9983 26.5 18.9983C27.2722 18.9983 28.0279 19.2217 28.6759 19.6417C29.3239 20.0617 29.8366 20.6602 30.152 21.365L30.157 21.375C30.2337 21.5483 30.2987 21.691 30.352 21.803C30.398 21.9 30.466 22.041 30.553 22.163C30.679 22.339 30.844 22.534 31.086 22.691C31.328 22.847 31.573 22.918 31.786 22.961C31.986 23.001 32.228 23.001 32.436 23.001L32.5 23C33.0304 23 33.5391 23.2107 33.9142 23.5858C34.2893 23.9609 34.5 24.4696 34.5 25C34.5 25.5304 34.2893 26.0391 33.9142 26.4142C33.5391 26.7893 33.0304 27 32.5 27H30.328L32.328 29H32.5C33.5609 29 34.5783 28.5786 35.3284 27.8284C36.0786 27.0783 36.5 26.0609 36.5 25C36.5 23.9391 36.0786 22.9217 35.3284 22.1716C34.5783 21.4214 33.5609 21 32.5 21C32.354 21 32.267 21 32.203 20.998H32.183L32.158 20.945C32.0961 20.8122 32.0354 20.6789 31.976 20.545C31.5024 19.4889 30.7335 18.5923 29.7619 17.9633C28.7902 17.3343 27.6574 16.9998 26.5 17Z" fill="#E9ECF6"/>
<path d="M26.5 26.9999L25.793 26.2929L26.5 25.5859L27.207 26.2929L26.5 26.9999ZM27.5 35.9999C27.5 36.2652 27.3946 36.5195 27.2071 36.707C27.0195 36.8946 26.7652 36.9999 26.5 36.9999C26.2348 36.9999 25.9804 36.8946 25.7929 36.707C25.6053 36.5195 25.5 36.2652 25.5 35.9999H27.5ZM21.793 30.2929L25.793 26.2929L27.207 27.7069L23.207 31.7069L21.793 30.2929ZM27.207 26.2929L31.207 30.2929L29.793 31.7069L25.793 27.7069L27.207 26.2929ZM27.5 26.9999V35.9999H25.5V26.9999H27.5Z" fill="#E9ECF6"/>
</svg>
