<svg width="56" height="54" viewBox="0 0 56 54" fill="none" xmlns="http://www.w3.org/2000/svg">
<rect width="55.5" height="54" rx="27" fill="#0994DC"/>
<path d="M27.5 23V19C27.5 18.7167 27.596 18.4793 27.788 18.288C27.98 18.0967 28.2173 18.0007 28.5 18H34.5C34.7833 18 35.021 18.096 35.213 18.288C35.405 18.48 35.5007 18.7173 35.5 19V23C35.5 23.2833 35.404 23.521 35.212 23.713C35.02 23.905 34.7827 24.0007 34.5 24H28.5C28.2167 24 27.9793 23.904 27.788 23.712C27.5967 23.52 27.5007 23.2827 27.5 23ZM17.5 27V19C17.5 18.7167 17.596 18.4793 17.788 18.288C17.98 18.0967 18.2173 18.0007 18.5 18H24.5C24.7833 18 25.021 18.096 25.213 18.288C25.405 18.48 25.5007 18.7173 25.5 19V27C25.5 27.2833 25.404 27.521 25.212 27.713C25.02 27.905 24.7827 28.0007 24.5 28H18.5C18.2167 28 17.9793 27.904 17.788 27.712C17.5967 27.52 17.5007 27.2827 17.5 27ZM27.5 35V27C27.5 26.7167 27.596 26.4793 27.788 26.288C27.98 26.0967 28.2173 26.0007 28.5 26H34.5C34.7833 26 35.021 26.096 35.213 26.288C35.405 26.48 35.5007 26.7173 35.5 27V35C35.5 35.2833 35.404 35.521 35.212 35.713C35.02 35.905 34.7827 36.0007 34.5 36H28.5C28.2167 36 27.9793 35.904 27.788 35.712C27.5967 35.52 27.5007 35.2827 27.5 35ZM17.5 35V31C17.5 30.7167 17.596 30.4793 17.788 30.288C17.98 30.0967 18.2173 30.0007 18.5 30H24.5C24.7833 30 25.021 30.096 25.213 30.288C25.405 30.48 25.5007 30.7173 25.5 31V35C25.5 35.2833 25.404 35.521 25.212 35.713C25.02 35.905 24.7827 36.0007 24.5 36H18.5C18.2167 36 17.9793 35.904 17.788 35.712C17.5967 35.52 17.5007 35.2827 17.5 35ZM19.5 26H23.5V20H19.5V26ZM29.5 34H33.5V28H29.5V34ZM29.5 22H33.5V20H29.5V22ZM19.5 34H23.5V32H19.5V34Z" fill="#E9ECF6"/>
</svg>
