<svg width="56" height="54" viewBox="0 0 56 54" fill="none" xmlns="http://www.w3.org/2000/svg">
<rect width="55.5" height="54" rx="27" fill="#0994DC"/>
<path d="M20.8428 19.9376C20.9358 20.0305 21.0095 20.1407 21.0598 20.2621C21.1102 20.3835 21.1361 20.5137 21.1361 20.6451C21.1361 20.7765 21.1102 20.9066 21.0598 21.028C21.0095 21.1494 20.9358 21.2597 20.8428 21.3526C19.3422 22.8534 18.4992 24.8888 18.4992 27.0111C18.4992 29.1334 19.3422 31.1688 20.8428 32.6696C20.9383 32.7618 21.0145 32.8722 21.0669 32.9942C21.1193 33.1162 21.1469 33.2474 21.148 33.3802C21.1492 33.513 21.1239 33.6446 21.0736 33.7675C21.0233 33.8904 20.9491 34.0021 20.8552 34.096C20.7613 34.1899 20.6496 34.2641 20.5267 34.3144C20.4038 34.3647 20.2722 34.39 20.1394 34.3888C20.0066 34.3877 19.8754 34.3601 19.7534 34.3077C19.6314 34.2553 19.521 34.1791 19.4288 34.0836C15.5218 30.1776 15.5218 23.8436 19.4288 19.9376C19.6163 19.7501 19.8706 19.6448 20.1358 19.6448C20.4009 19.6448 20.6553 19.7501 20.8428 19.9376ZM33.5748 19.9376C37.4808 23.8446 37.4808 30.1776 33.5748 34.0836C33.3873 34.2712 33.1329 34.3767 32.8676 34.3768C32.6024 34.3769 32.3479 34.2716 32.1603 34.0841C31.9726 33.8966 31.8672 33.6422 31.8671 33.3769C31.867 33.1117 31.9723 32.8572 32.1598 32.6696C33.6603 31.1688 34.5033 29.1334 34.5033 27.0111C34.5033 24.8888 33.6603 22.8534 32.1598 21.3526C31.9721 21.1649 31.8667 20.9105 31.8667 20.6451C31.8667 20.3797 31.9721 20.1252 32.1598 19.9376C32.3474 19.7499 32.6019 19.6445 32.8673 19.6445C33.1326 19.6445 33.3871 19.7499 33.5748 19.9376ZM23.8098 22.8116C23.9973 22.9991 24.1026 23.2534 24.1026 23.5186C24.1026 23.7838 23.9973 24.0381 23.8098 24.2256C23.4457 24.5896 23.157 25.0218 22.9599 25.4974C22.7629 25.973 22.6615 26.4828 22.6615 26.9976C22.6615 27.5124 22.7629 28.0222 22.9599 28.4978C23.157 28.9734 23.4457 29.4056 23.8098 29.7696C23.9026 29.8625 23.9763 29.9728 24.0265 30.0942C24.0767 30.2155 24.1025 30.3456 24.1025 30.4769C24.1024 30.6083 24.0765 30.7383 24.0262 30.8597C23.9759 30.981 23.9022 31.0912 23.8093 31.1841C23.7164 31.2769 23.6061 31.3506 23.4847 31.4008C23.3634 31.451 23.2333 31.4768 23.1019 31.4768C22.9706 31.4767 22.8405 31.4508 22.7192 31.4005C22.5979 31.3502 22.4876 31.2765 22.3948 31.1836C21.2846 30.0734 20.6609 28.5676 20.6609 26.9976C20.6609 25.4275 21.2846 23.9218 22.3948 22.8116C22.4877 22.7186 22.5979 22.6449 22.7193 22.5945C22.8407 22.5442 22.9709 22.5183 23.1023 22.5183C23.2337 22.5183 23.3638 22.5442 23.4852 22.5945C23.6066 22.6449 23.7169 22.7186 23.8098 22.8116ZM30.7678 22.8116C31.878 23.9218 32.5016 25.4275 32.5016 26.9976C32.5016 28.5676 31.878 30.0734 30.7678 31.1836C30.5792 31.3657 30.3266 31.4665 30.0644 31.4643C29.8022 31.462 29.5514 31.3568 29.366 31.1714C29.1806 30.986 29.0754 30.7352 29.0731 30.473C29.0708 30.2108 29.1716 29.9582 29.3538 29.7696C29.7178 29.4056 30.0066 28.9734 30.2036 28.4978C30.4007 28.0222 30.5021 27.5124 30.5021 26.9976C30.5021 26.4828 30.4007 25.973 30.2036 25.4974C30.0066 25.0218 29.7178 24.5896 29.3538 24.2256C29.1716 24.037 29.0708 23.7844 29.0731 23.5222C29.0754 23.26 29.1806 23.0092 29.366 22.8238C29.5514 22.6384 29.8022 22.5332 30.0644 22.5309C30.3266 22.5286 30.5792 22.6294 30.7678 22.8116ZM26.5818 25.5816C26.9796 25.5816 27.3611 25.7396 27.6424 26.0209C27.9237 26.3022 28.0818 26.6838 28.0818 27.0816C28.0818 27.4794 27.9237 27.8609 27.6424 28.1422C27.3611 28.4236 26.9796 28.5816 26.5818 28.5816C26.184 28.5816 25.8024 28.4236 25.5211 28.1422C25.2398 27.8609 25.0818 27.4794 25.0818 27.0816C25.0818 26.6838 25.2398 26.3022 25.5211 26.0209C25.8024 25.7396 26.184 25.5816 26.5818 25.5816Z" fill="#E9ECF6"/>
</svg>
