<svg width="56" height="54" viewBox="0 0 56 54" fill="none" xmlns="http://www.w3.org/2000/svg">
<rect width="55.5" height="54" rx="27" fill="#0994DC"/>
<path d="M33.5 17H19.5C19.2348 17 18.9804 17.1054 18.7929 17.2929C18.6054 17.4804 18.5 17.7348 18.5 18V36C18.5 36.2652 18.6054 36.5196 18.7929 36.7071C18.9804 36.8946 19.2348 37 19.5 37H33.5C33.7652 37 34.0196 36.8946 34.2071 36.7071C34.3946 36.5196 34.5 36.2652 34.5 36V18C34.5 17.7348 34.3946 17.4804 34.2071 17.2929C34.0196 17.1054 33.7652 17 33.5 17Z" stroke="#E9ECF6" stroke-width="2" stroke-linecap="round" stroke-linejoin="round"/>
<path d="M29.5 26.4999L27.7675 24.7674M27.7675 24.7674C28.0045 24.5364 28.1932 24.2606 28.3227 23.956C28.4523 23.6514 28.52 23.3242 28.5221 22.9932C28.5242 22.6622 28.4605 22.3342 28.3348 22.028C28.2091 21.7218 28.0238 21.4437 27.7898 21.2096C27.5557 20.9756 27.2776 20.7904 26.9714 20.6648C26.6652 20.5391 26.3371 20.4755 26.0061 20.4776C25.6752 20.4797 25.3479 20.5475 25.0434 20.6771C24.7388 20.8067 24.463 20.9954 24.232 21.2324C23.7666 21.7021 23.5062 22.3369 23.5077 22.998C23.5093 23.6592 23.7727 24.2928 24.2402 24.7602C24.7078 25.2277 25.3415 25.4908 26.0026 25.4922C26.6638 25.4936 27.298 25.233 27.7675 24.7674ZM23 29.9999H30M23 32.9999H26.5" stroke="#E9ECF6" stroke-width="2" stroke-linecap="round" stroke-linejoin="round"/>
</svg>
