<svg width="56" height="54" viewBox="0 0 56 54" fill="none" xmlns="http://www.w3.org/2000/svg">
<rect width="55.5" height="54" rx="27" fill="#0994DC"/>
<path d="M28.5 34C32.271 34 34.157 34 35.328 32.828C36.499 31.656 36.5 29.771 36.5 26C36.5 22.229 36.5 20.343 35.328 19.172C34.156 18.001 32.271 18 28.5 18H24.5C20.729 18 18.843 18 17.672 19.172C16.501 20.344 16.5 22.229 16.5 26C16.5 29.771 16.5 31.657 17.672 32.828C18.325 33.482 19.2 33.771 20.5 33.898" stroke="#E9ECF6" stroke-width="2" stroke-linecap="round" stroke-linejoin="round"/>
<path d="M28.5 34C27.264 34 25.902 34.5 24.659 35.145C22.661 36.182 21.662 36.701 21.17 36.37C20.678 36.039 20.771 35.015 20.958 32.966L21 32.5" stroke="#E9ECF6" stroke-width="2" stroke-linecap="round"/>
<path d="M20 28.5L21 26.5M21 26.5L22.106 24.289C22.1891 24.1231 22.3168 23.9836 22.4747 23.8862C22.6326 23.7887 22.8145 23.7371 23 23.7371C23.1855 23.7371 23.3674 23.7887 23.5253 23.8862C23.6832 23.9836 23.8109 24.1231 23.894 24.289L25 26.5M21 26.5H25M25 26.5L26 28.5M27 22.5H28.982V24C28.982 24.5 28.486 25.5 27.495 25.5M31.459 22.5V24.5M31.459 24.5V28.5M31.459 24.5H33" stroke="#E9ECF6" stroke-width="2" stroke-linecap="round" stroke-linejoin="round"/>
</svg>
