<svg width="56" height="54" viewBox="0 0 56 54" fill="none" xmlns="http://www.w3.org/2000/svg">
<rect width="55.5" height="54" rx="27" fill="#0994DC"/>
<path d="M32.5 17V20M20.5 17V20M17.5 23H35.5M25 18.5H28C31.771 18.5 33.657 18.5 34.828 19.672C35.999 20.844 36 22.729 36 26.5V29C36 32.771 36 34.657 34.828 35.828C33.656 36.999 31.771 37 28 37H25C21.229 37 19.343 37 18.172 35.828C17.001 34.656 17 32.771 17 29V26.5C17 22.729 17 20.843 18.172 19.672C19.344 18.501 21.229 18.5 25 18.5Z" stroke="#E9ECF6" stroke-width="1.5" stroke-linecap="round" stroke-linejoin="round"/>
<path d="M22.944 29.528C23.7273 29.4287 24.4553 29.0718 25.0136 28.5136C25.5718 27.9553 25.9287 27.2273 26.028 26.444C26.058 26.2 26.254 26 26.5 26C26.746 26 26.941 26.2 26.972 26.444C27.0713 27.2273 27.4282 27.9553 27.9864 28.5136C28.5447 29.0718 29.2727 29.4287 30.056 29.528C30.3 29.558 30.5 29.754 30.5 30C30.5 30.246 30.3 30.441 30.056 30.472C29.2727 30.5713 28.5447 30.9282 27.9864 31.4864C27.4282 32.0447 27.0713 32.7727 26.972 33.556C26.942 33.8 26.746 34 26.5 34C26.254 34 26.059 33.8 26.028 33.556C25.9287 32.7727 25.5718 32.0447 25.0136 31.4864C24.4553 30.9282 23.7273 30.5713 22.944 30.472C22.7 30.442 22.5 30.246 22.5 30C22.5 29.754 22.7 29.559 22.944 29.528Z" stroke="#E9ECF6" stroke-width="1.5" stroke-linecap="round" stroke-linejoin="round"/>
</svg>
