<svg width="56" height="54" viewBox="0 0 56 54" fill="none" xmlns="http://www.w3.org/2000/svg">
<rect width="55.5" height="54" rx="27" fill="#0994DC"/>
<g clip-path="url(#clip0_394_5008)">
<path d="M15.25 38.25H37.75M18.68 24.24L34.75 16.94M34.75 16.94L33.56 20.13M34.75 16.94L31.57 15.75M20.5 31.25H17.5C17.3019 31.2526 17.1126 31.3324 16.9725 31.4725C16.8324 31.6126 16.7526 31.8019 16.75 32V38.25H21.25V32C21.2474 31.8019 21.1676 31.6126 21.0275 31.4725C20.8874 31.3324 20.6981 31.2526 20.5 31.25ZM28 27.25H25C24.8019 27.2526 24.6126 27.3324 24.4725 27.4725C24.3324 27.6126 24.2526 27.8019 24.25 28V38.25H28.75V28C28.7474 27.8019 28.6676 27.6126 28.5275 27.4725C28.3874 27.3324 28.1981 27.2526 28 27.25ZM35.5 23.25H32.5C32.3019 23.2526 32.1126 23.3324 31.9725 23.4725C31.8324 23.6126 31.7526 23.8019 31.75 24V38.25H36.25V24C36.2474 23.8019 36.1676 23.6126 36.0275 23.4725C35.8874 23.3324 35.6981 23.2526 35.5 23.25Z" stroke="#E9ECF6" stroke-width="1.5" stroke-linecap="round" stroke-linejoin="round"/>
</g>
<defs>
<clipPath id="clip0_394_5008">
<rect width="24" height="24" fill="white" transform="translate(14.5 15)"/>
</clipPath>
</defs>
</svg>
