<svg width="56" height="54" viewBox="0 0 56 54" fill="none" xmlns="http://www.w3.org/2000/svg">
<rect width="55.5" height="54" rx="27" fill="#0994DC"/>
<path d="M24.743 31.3141L20.5 27.0701L21.914 25.6561L24.743 28.4841L30.399 22.8271L31.814 24.2421L24.743 31.3141Z" fill="#E9ECF6"/>
<path fill-rule="evenodd" clip-rule="evenodd" d="M15.5 27C15.5 20.925 20.425 16 26.5 16C32.575 16 37.5 20.925 37.5 27C37.5 33.075 32.575 38 26.5 38C20.425 38 15.5 33.075 15.5 27ZM26.5 36C25.3181 36 24.1478 35.7672 23.0558 35.3149C21.9639 34.8626 20.9718 34.1997 20.136 33.364C19.3003 32.5282 18.6374 31.5361 18.1851 30.4442C17.7328 29.3522 17.5 28.1819 17.5 27C17.5 25.8181 17.7328 24.6478 18.1851 23.5558C18.6374 22.4639 19.3003 21.4718 20.136 20.636C20.9718 19.8003 21.9639 19.1374 23.0558 18.6851C24.1478 18.2328 25.3181 18 26.5 18C28.8869 18 31.1761 18.9482 32.864 20.636C34.5518 22.3239 35.5 24.6131 35.5 27C35.5 29.3869 34.5518 31.6761 32.864 33.364C31.1761 35.0518 28.8869 36 26.5 36Z" fill="#E9ECF6"/>
</svg>
