<svg width="56" height="54" viewBox="0 0 56 54" fill="none" xmlns="http://www.w3.org/2000/svg">
<rect width="55.5" height="54" rx="27" fill="#0994DC"/>
<path d="M20.9294 17.4133C21.0555 17.2628 21.1176 17.0689 21.1023 16.8732C21.087 16.6775 20.9956 16.4956 20.8476 16.3665C20.6997 16.2375 20.5071 16.1715 20.3111 16.1829C20.1152 16.1943 19.9314 16.282 19.7994 16.4273L18.5074 17.9073C17.7748 18.7469 17.3607 19.8173 17.3374 20.9313L17.2804 23.6503C17.2784 23.7488 17.2958 23.8467 17.3316 23.9385C17.3674 24.0303 17.4209 24.1141 17.4891 24.1852C17.5573 24.2563 17.6389 24.3132 17.7291 24.3528C17.8193 24.3924 17.9164 24.4138 18.0149 24.4158C18.1134 24.4178 18.2114 24.4005 18.3031 24.3647C18.3949 24.3288 18.4787 24.2753 18.5498 24.2071C18.6209 24.1389 18.6778 24.0574 18.7174 23.9671C18.757 23.8769 18.7784 23.7798 18.7804 23.6813L18.8364 20.9633C18.8525 20.201 19.136 19.4687 19.6374 18.8943L20.9294 17.4133Z" fill="#E9ECF6"/>
<path fill-rule="evenodd" clip-rule="evenodd" d="M20.7369 22.7C20.8041 21.6301 21.2765 20.6261 22.0579 19.8922C22.8393 19.1584 23.871 18.7499 24.9429 18.75H25.4999V18C25.4999 17.7348 25.6053 17.4804 25.7928 17.2929C25.9804 17.1054 26.2347 17 26.4999 17C26.7652 17 27.0195 17.1054 27.2071 17.2929C27.3946 17.4804 27.4999 17.7348 27.4999 18V18.75H28.0569C29.1289 18.7499 30.1606 19.1584 30.942 19.8922C31.7234 20.6261 32.1958 21.6301 32.2629 22.7L32.4839 26.234C32.5694 27.5812 33.0217 28.8794 33.7919 29.988C33.9513 30.2171 34.0487 30.4835 34.0746 30.7613C34.1005 31.0392 34.0541 31.319 33.9398 31.5736C33.8256 31.8281 33.6474 32.0488 33.4226 32.2142C33.1978 32.3795 32.934 32.4838 32.6569 32.517L29.2499 32.925V34C29.2499 34.7293 28.9602 35.4288 28.4445 35.9445C27.9288 36.4603 27.2293 36.75 26.4999 36.75C25.7706 36.75 25.0711 36.4603 24.5554 35.9445C24.0397 35.4288 23.7499 34.7293 23.7499 34V32.925L20.3429 32.516C20.066 32.4827 19.8025 32.3784 19.5778 32.2131C19.3531 32.0478 19.175 31.8273 19.0608 31.5729C18.9466 31.3184 18.9001 31.0388 18.9259 30.7611C18.9517 30.4834 19.0488 30.2171 19.2079 29.988C19.9782 28.8794 20.4305 27.5812 20.5159 26.234L20.7369 22.7ZM24.9429 20.25C24.2525 20.2499 23.588 20.513 23.0847 20.9856C22.5814 21.4582 22.2772 22.1049 22.2339 22.794L22.0139 26.328C21.9111 27.9487 21.3668 29.5105 20.4399 30.844C20.4284 30.8606 20.4214 30.8798 20.4195 30.8999C20.4176 30.92 20.421 30.9403 20.4292 30.9587C20.4375 30.9771 20.4503 30.9931 20.4666 31.005C20.4828 31.017 20.5019 31.0246 20.5219 31.027L24.2589 31.476C25.7479 31.654 27.2519 31.654 28.7409 31.476L32.478 31.027C32.498 31.0246 32.5171 31.017 32.5333 31.005C32.5496 30.9931 32.5624 30.9771 32.5707 30.9587C32.5789 30.9403 32.5823 30.92 32.5804 30.8999C32.5785 30.8798 32.5715 30.8606 32.5599 30.844C31.6334 29.5104 31.0895 27.9486 30.9869 26.328L30.766 22.794C30.7227 22.1049 30.4185 21.4582 29.9152 20.9856C29.4119 20.513 28.7474 20.2499 28.0569 20.25H24.9429ZM26.4999 35.25C25.8099 35.25 25.2499 34.69 25.2499 34V33.25H27.7499V34C27.7499 34.69 27.1899 35.25 26.4999 35.25Z" fill="#E9ECF6"/>
<path d="M32.1425 16.3547C31.9927 16.4855 31.901 16.6704 31.8875 16.8688C31.874 17.0672 31.9398 17.2628 32.0705 17.4127L33.3625 18.8927C33.8638 19.4675 34.147 20.2002 34.1625 20.9627L34.2195 23.6797C34.2236 23.8786 34.3066 24.0678 34.4502 24.2055C34.5937 24.3432 34.7861 24.4183 34.985 24.4142C35.1839 24.4101 35.3731 24.3271 35.5108 24.1836C35.6486 24.04 35.7236 23.8476 35.7195 23.6487L35.6625 20.9307C35.6393 19.8167 35.2251 18.7463 34.4925 17.9067L33.2005 16.4267C33.0698 16.2769 32.8848 16.1852 32.6864 16.1717C32.488 16.1582 32.2924 16.224 32.1425 16.3547Z" fill="#E9ECF6"/>
</svg>
