<svg width="56" height="54" viewBox="0 0 56 54" fill="none" xmlns="http://www.w3.org/2000/svg">
<rect width="55.5" height="54" rx="27" fill="#0994DC"/>
<path d="M28.0858 17C28.6162 17.0001 29.1248 17.2109 29.4998 17.586L33.9138 22C34.2889 22.375 34.4997 22.8836 34.4998 23.414V35C34.4998 35.5304 34.2891 36.0391 33.914 36.4142C33.5389 36.7893 33.0302 37 32.4998 37H20.4998C19.9694 37 19.4607 36.7893 19.0856 36.4142C18.7105 36.0391 18.4998 35.5304 18.4998 35V27C18.4998 26.7348 18.6052 26.4804 18.7927 26.2929C18.9802 26.1054 19.2346 26 19.4998 26C19.765 26 20.0194 26.1054 20.2069 26.2929C20.3945 26.4804 20.4998 26.7348 20.4998 27V35H32.4998V25H27.9998C27.602 25 27.2205 24.842 26.9391 24.5607C26.6578 24.2794 26.4998 23.8978 26.4998 23.5V19H25.4998C25.2346 19 24.9802 18.8946 24.7927 18.7071C24.6052 18.5196 24.4998 18.2652 24.4998 18C24.4998 17.7348 24.6052 17.4804 24.7927 17.2929C24.9802 17.1054 25.2346 17 25.4998 17H28.0858ZM19.4998 16C19.7084 16.0001 19.9118 16.0654 20.0814 16.1868C20.251 16.3082 20.3784 16.4796 20.4458 16.677L20.5758 17.055C20.8758 17.934 21.5658 18.625 22.4458 18.925L22.8228 19.054C23.02 19.1216 23.1912 19.2491 23.3123 19.4187C23.4335 19.5883 23.4986 19.7915 23.4986 20C23.4986 20.2085 23.4335 20.4117 23.3123 20.5813C23.1912 20.7509 23.02 20.8784 22.8228 20.946L22.4448 21.076C21.5658 21.376 20.8748 22.066 20.5748 22.946L20.4458 23.323C20.3782 23.5202 20.2507 23.6913 20.0811 23.8125C19.9115 23.9337 19.7083 23.9988 19.4998 23.9988C19.2914 23.9988 19.0881 23.9337 18.9185 23.8125C18.7489 23.6913 18.6214 23.5202 18.5538 23.323L18.4238 22.945C18.2757 22.5111 18.0301 22.117 17.706 21.7928C17.3818 21.4687 16.9877 21.2231 16.5538 21.075L16.1768 20.946C15.9796 20.8784 15.8085 20.7509 15.6873 20.5813C15.5661 20.4117 15.501 20.2085 15.501 20C15.501 19.7915 15.5661 19.5883 15.6873 19.4187C15.8085 19.2491 15.9796 19.1216 16.1768 19.054L16.5548 18.924C17.4338 18.624 18.1248 17.934 18.4248 17.054L18.6158 16.531C18.701 16.3705 18.8283 16.2363 18.9841 16.1428C19.1398 16.0492 19.3181 15.9999 19.4998 16ZM28.4998 23H32.0858L28.4998 19.414V23ZM19.4998 19.196C19.2633 19.4937 18.9935 19.7634 18.6958 20C18.9951 20.2367 19.2631 20.5043 19.4998 20.803C19.7371 20.505 20.0048 20.2373 20.3028 20C20.0055 19.7634 19.7361 19.4936 19.4998 19.196Z" fill="#E9ECF6"/>
</svg>
