<svg width="56" height="54" viewBox="0 0 56 54" fill="none" xmlns="http://www.w3.org/2000/svg">
<rect width="55.5" height="54" rx="27" fill="#0994DC"/>
<path fill-rule="evenodd" clip-rule="evenodd" d="M35.0402 31.8069C35.1486 31.6948 35.2193 31.5518 35.2426 31.3976C35.2659 31.2435 35.2406 31.0859 35.1702 30.9469L34.4392 29.5059C33.6252 27.8979 32.3814 26.5471 30.8459 25.6034C29.3105 24.6597 27.5435 24.16 25.7412 24.1599H25.3372C25.3117 23.6064 25.2787 23.0534 25.2382 22.5009L25.1702 21.5619C25.1576 21.3884 25.1001 21.2213 25.0035 21.0767C24.9068 20.9322 24.7743 20.8152 24.6188 20.7373C24.4634 20.6594 24.2904 20.6232 24.1167 20.6322C23.9431 20.6413 23.7748 20.6952 23.6282 20.7889C21.5125 22.1407 19.6731 23.8827 18.2082 25.9219L17.7482 26.5629C17.6567 26.6904 17.6074 26.8434 17.6074 27.0004C17.6074 27.1573 17.6567 27.3104 17.7482 27.4379L18.2082 28.0779C19.673 30.1174 21.5124 31.8597 23.6282 33.2119C24.2682 33.6219 25.1142 33.1969 25.1702 32.4389L25.2382 31.4989C25.2862 30.8402 25.3239 30.1802 25.3512 29.5189C27.5347 29.454 29.7034 29.8973 31.6862 30.8139L34.1862 31.9679C34.3276 32.0331 34.4858 32.0528 34.6388 32.0241C34.7918 31.9955 34.9321 31.9199 35.0402 31.8079M32.8302 29.6899L32.3152 29.4529C29.894 28.3353 27.2271 27.8557 24.5682 28.0599C24.3836 28.0741 24.2108 28.1561 24.083 28.2902C23.9553 28.4242 23.8816 28.6008 23.8762 28.7859C23.8509 29.6559 23.8062 30.5245 23.7422 31.3919L23.7362 31.4789C22.0717 30.3041 20.615 28.8595 19.4262 27.2049L19.2802 26.9999L19.4262 26.7969C20.6149 25.1419 22.0716 23.697 23.7362 22.5219L23.7422 22.6089C23.7989 23.3835 23.8406 24.1589 23.8672 24.9349C23.8737 25.1294 23.9556 25.3138 24.0956 25.4491C24.2355 25.5844 24.4226 25.66 24.6172 25.6599H25.7412C27.1704 25.6598 28.575 26.0311 29.8176 26.7372C31.0601 27.4433 32.0979 28.46 32.8292 29.6879" fill="#E9ECF6"/>
</svg>
