<svg width="56" height="54" viewBox="0 0 56 54" fill="none" xmlns="http://www.w3.org/2000/svg">
<rect width="55.5" height="54" rx="27" fill="#0994DC"/>
<path d="M27.5 18.002C27.03 18.0007 26.53 18 26 18C21.522 18 19.282 18 17.891 19.391C16.5 20.782 16.5 23.021 16.5 27.5C16.5 31.978 16.5 34.218 17.891 35.609C19.282 37 21.521 37 26 37C30.478 37 32.718 37 34.109 35.609C35.5 34.218 35.5 31.979 35.5 27.5C35.5 26.97 35.4993 26.47 35.498 26" stroke="#E9ECF6" stroke-width="1.5" stroke-linecap="round"/>
<path d="M33 17L33.258 17.697C33.596 18.611 33.765 19.068 34.098 19.401C34.432 19.735 34.889 19.904 35.803 20.242L36.5 20.5L35.803 20.758C34.889 21.096 34.432 21.265 34.099 21.598C33.765 21.932 33.596 22.389 33.258 23.303L33 24L32.742 23.303C32.404 22.389 32.235 21.932 31.902 21.599C31.568 21.265 31.111 21.096 30.197 20.758L29.5 20.5L30.197 20.242C31.111 19.904 31.568 19.735 31.901 19.402C32.235 19.068 32.404 18.611 32.742 17.697L33 17Z" stroke="#E9ECF6" stroke-width="1.5" stroke-linejoin="round"/>
<path d="M21.5 32.5C23.832 30.058 28.143 29.943 30.5 32.5M28.495 25C28.495 26.38 27.375 27.5 25.992 27.5C25.6634 27.5005 25.3378 27.4363 25.0341 27.3109C24.7303 27.1854 24.4542 27.0014 24.2216 26.7692C23.9891 26.537 23.8046 26.2612 23.6787 25.9576C23.5528 25.6541 23.488 25.3286 23.488 25C23.488 23.62 24.608 22.5 25.992 22.5C26.3206 22.4996 26.646 22.564 26.9496 22.6894C27.2533 22.8149 27.5292 22.999 27.7617 23.2312C27.9942 23.4634 28.1786 23.7391 28.3044 24.0426C28.4302 24.3461 28.495 24.6714 28.495 25Z" stroke="#E9ECF6" stroke-width="1.5" stroke-linecap="round"/>
</svg>
