<svg width="56" height="54" viewBox="0 0 56 54" fill="none" xmlns="http://www.w3.org/2000/svg">
<rect width="55.5" height="54" rx="27" fill="#0994DC"/>
<path d="M33.5 29V22.5L28.5 19L23.5 22.5V24H21.5V21.5L28.5 16.5L35.5 21.5V29H33.5ZM29 23H30V22H29V23ZM27 23H28V22H27V23ZM29 25H30V24H29V25ZM27 25H28V24H27V25ZM21.5 33.5L28.45 35.4L34.4 33.55C34.3167 33.4 34.1957 33.2707 34.037 33.162C33.8783 33.0533 33.6993 32.9993 33.5 33H28.45C28 33 27.6417 32.9833 27.375 32.95C27.1083 32.9167 26.8333 32.85 26.55 32.75L24.225 31.975L24.775 30.025L26.8 30.7C27.0833 30.7833 27.4167 30.85 27.8 30.9C28.1833 30.95 28.75 30.9833 29.5 31C29.5 30.8167 29.446 30.6417 29.338 30.475C29.23 30.3083 29.1007 30.2 28.95 30.15L23.1 28H21.5V33.5ZM15.5 37V26H23.1C23.2167 26 23.3333 26.0127 23.45 26.038C23.5667 26.0633 23.675 26.0923 23.775 26.125L29.65 28.3C30.2 28.5 30.646 28.85 30.988 29.35C31.33 29.85 31.5007 30.4 31.5 31H33.5C34.3333 31 35.0417 31.275 35.625 31.825C36.2083 32.375 36.5 33.1 36.5 34V35L28.5 37.5L21.5 35.55V37H15.5ZM17.5 35H19.5V28H17.5V35Z" fill="#E9ECF6"/>
</svg>
