<svg width="56" height="54" viewBox="0 0 56 54" fill="none" xmlns="http://www.w3.org/2000/svg">
<rect width="55.5" height="54" rx="27" fill="#0994DC"/>
<path fill-rule="evenodd" clip-rule="evenodd" d="M32.8189 29.4331C34.0659 27.8255 34.6536 25.8031 34.4624 23.7776C34.2713 21.752 33.3156 19.8753 31.7899 18.5294C30.2641 17.1834 28.283 16.4692 26.2494 16.5322C24.2158 16.5951 22.2825 17.4304 20.8429 18.8681C19.4021 20.3068 18.564 22.2408 18.4996 24.276C18.4352 26.3111 19.1492 28.2942 20.4961 29.8212C21.8431 31.3482 23.7216 32.3041 25.7489 32.4942C27.7762 32.6842 29.7996 32.0941 31.4069 30.8441L31.4499 30.8891L35.6919 35.1321C35.7848 35.225 35.8951 35.2987 36.0165 35.349C36.1379 35.3993 36.268 35.4252 36.3994 35.4252C36.5308 35.4252 36.6609 35.3993 36.7823 35.349C36.9037 35.2987 37.014 35.225 37.1069 35.1321C37.1998 35.0392 37.2735 34.9289 37.3238 34.8075C37.3741 34.6861 37.4 34.556 37.4 34.4246C37.4 34.2932 37.3741 34.1631 37.3238 34.0417C37.2735 33.9203 37.1998 33.81 37.1069 33.7171L32.8639 29.4751L32.8189 29.4331ZM30.7429 20.2831C31.3075 20.8386 31.7566 21.5004 32.0641 22.2302C32.3717 22.9601 32.5317 23.7437 32.5349 24.5357C32.5381 25.3278 32.3845 26.1126 32.0829 26.845C31.7813 27.5773 31.3377 28.2427 30.7776 28.8028C30.2176 29.3629 29.5521 29.8065 28.8198 30.1081C28.0874 30.4097 27.3026 30.5633 26.5105 30.5601C25.7185 30.5569 24.9349 30.3969 24.2051 30.0893C23.4752 29.7817 22.8134 29.3327 22.2579 28.7681C21.1478 27.6398 20.5286 26.1185 20.535 24.5357C20.5415 22.9529 21.1731 21.4367 22.2923 20.3175C23.4116 19.1983 24.9277 18.5666 26.5105 18.5602C28.0934 18.5538 29.6146 19.173 30.7429 20.2831Z" fill="#E9ECF6"/>
</svg>
