<svg width="56" height="54" viewBox="0 0 56 54" fill="none" xmlns="http://www.w3.org/2000/svg">
<rect width="55.5" height="54" rx="27" fill="#0994DC"/>
<path d="M26.5 37C24.1833 36.4167 22.2707 35.0873 20.762 33.012C19.2533 30.9367 18.4993 28.6327 18.5 26.1V20L26.5 17L34.5 20V26.1C34.5 28.6333 33.746 30.9377 32.238 33.013C30.73 35.0883 28.8173 36.4173 26.5 37ZM26.5 34.9C28.2333 34.35 29.6667 33.25 30.8 31.6C31.9333 29.95 32.5 28.1167 32.5 26.1V21.375L26.5 19.125L20.5 21.375V26.1C20.5 28.1167 21.0667 29.95 22.2 31.6C23.3333 33.25 24.7667 34.35 26.5 34.9Z" fill="#E9ECF6"/>
</svg>
