<svg width="56" height="54" viewBox="0 0 56 54" fill="none" xmlns="http://www.w3.org/2000/svg">
<rect width="55.5" height="54" rx="27" fill="#0994DC"/>
<path d="M25.5 33H27.5V36H25.5V33ZM30.5 36V38H22.5V36H30.5ZM34.5 33H18.5C17.7046 32.9992 16.942 32.6829 16.3796 32.1204C15.8171 31.558 15.5008 30.7954 15.5 30V19C15.5008 18.2046 15.8171 17.442 16.3796 16.8796C16.942 16.3171 17.7046 16.0008 18.5 16H34.5C35.2954 16.0008 36.058 16.3171 36.6204 16.8796C37.1829 17.442 37.4992 18.2046 37.5 19V30C37.4992 30.7954 37.1829 31.558 36.6204 32.1204C36.058 32.6829 35.2954 32.9992 34.5 33ZM18.5 18C18.2348 18 17.9804 18.1054 17.7929 18.2929C17.6054 18.4804 17.5 18.7348 17.5 19V30C17.5 30.2652 17.6054 30.5196 17.7929 30.7071C17.9804 30.8946 18.2348 31 18.5 31H34.5C34.7652 31 35.0196 30.8946 35.2071 30.7071C35.3946 30.5196 35.5 30.2652 35.5 30V19C35.5 18.7348 35.3946 18.4804 35.2071 18.2929C35.0196 18.1054 34.7652 18 34.5 18H18.5Z" fill="#E9ECF6"/>
<path d="M30.5 30L28.586 23.62L27.5 28L26.191 25H25.86L24.5 29L23.343 24.933L22.809 26H19.5V25H22.191L23.5 22L24.568 25.713L25.14 24H26.809L27.296 24.973L28.5 19L30.5 27L31.14 25H33.5V26H31.86L30.5 30Z" fill="#E9ECF6"/>
</svg>
