<svg width="56" height="54" viewBox="0 0 56 54" fill="none" xmlns="http://www.w3.org/2000/svg">
<rect width="55.5" height="54" rx="27" fill="#0994DC"/>
<path d="M34.5 34L35.03 34.53C35.1705 34.3894 35.2493 34.1988 35.2493 34C35.2493 33.8012 35.1705 33.6106 35.03 33.47L34.5 34ZM22.5 19.25C22.3011 19.25 22.1103 19.329 21.9697 19.4697C21.829 19.6103 21.75 19.8011 21.75 20C21.75 20.1989 21.829 20.3897 21.9697 20.5303C22.1103 20.671 22.3011 20.75 22.5 20.75V19.25ZM33.03 31.47C32.9613 31.3963 32.8785 31.3372 32.7865 31.2962C32.6945 31.2552 32.5952 31.2332 32.4945 31.2314C32.3938 31.2296 32.2938 31.2482 32.2004 31.2859C32.107 31.3236 32.0222 31.3797 31.951 31.451C31.8797 31.5222 31.8236 31.607 31.7859 31.7004C31.7482 31.7938 31.7296 31.8938 31.7314 31.9945C31.7332 32.0952 31.7552 32.1945 31.7962 32.2865C31.8372 32.3785 31.8963 32.4613 31.97 32.53L33.03 31.47ZM31.97 35.47C31.8963 35.5387 31.8372 35.6215 31.7962 35.7135C31.7552 35.8055 31.7332 35.9048 31.7314 36.0055C31.7296 36.1062 31.7482 36.2062 31.7859 36.2996C31.8236 36.393 31.8797 36.4778 31.951 36.549C32.0222 36.6203 32.107 36.6764 32.2004 36.7141C32.2938 36.7518 32.3938 36.7704 32.4945 36.7686C32.5952 36.7668 32.6945 36.7448 32.7865 36.7038C32.8785 36.6628 32.9613 36.6037 33.03 36.53L31.97 35.47ZM34.5 33.25H22V34.75H34.5V33.25ZM22 27.75H31V26.25H22V27.75ZM31 19.25H22.5V20.75H31V19.25ZM35.03 33.47L33.03 31.47L31.97 32.53L33.97 34.53L35.03 33.47ZM33.97 33.47L31.97 35.47L33.03 36.53L35.03 34.53L33.97 33.47ZM35.25 23.5C35.25 22.3728 34.8022 21.2918 34.0052 20.4948C33.2082 19.6978 32.1272 19.25 31 19.25V20.75C31.7293 20.75 32.4288 21.0397 32.9445 21.5555C33.4603 22.0712 33.75 22.7707 33.75 23.5H35.25ZM31 27.75C32.1272 27.75 33.2082 27.3022 34.0052 26.5052C34.8022 25.7082 35.25 24.6272 35.25 23.5H33.75C33.75 24.2293 33.4603 24.9288 32.9445 25.4445C32.4288 25.9603 31.7293 26.25 31 26.25V27.75ZM19.25 30.5C19.25 29.7707 19.5397 29.0712 20.0555 28.5555C20.5712 28.0397 21.2707 27.75 22 27.75V26.25C20.8728 26.25 19.7918 26.6978 18.9948 27.4948C18.1978 28.2918 17.75 29.3728 17.75 30.5H19.25ZM22 33.25C21.2707 33.25 20.5712 32.9603 20.0555 32.4445C19.5397 31.9288 19.25 31.2293 19.25 30.5H17.75C17.75 31.0581 17.8599 31.6108 18.0735 32.1264C18.2871 32.642 18.6001 33.1106 18.9948 33.5052C19.7918 34.3022 20.8728 34.75 22 34.75V33.25Z" fill="#E9ECF6"/>
<path d="M20.5 22C21.6046 22 22.5 21.1046 22.5 20C22.5 18.8954 21.6046 18 20.5 18C19.3954 18 18.5 18.8954 18.5 20C18.5 21.1046 19.3954 22 20.5 22Z" stroke="#E9ECF6" stroke-width="1.5"/>
</svg>
