<svg width="56" height="54" viewBox="0 0 56 54" fill="none" xmlns="http://www.w3.org/2000/svg">
<rect width="55.5" height="54" rx="27" fill="#0994DC"/>
<path d="M31 19.25C32.1272 19.25 33.2082 19.6978 34.0052 20.4948C34.8022 21.2918 35.25 22.3728 35.25 23.5C35.25 24.6272 34.8022 25.7082 34.0052 26.5052C33.2082 27.3022 32.1272 27.75 31 27.75H22C21.2707 27.75 20.5712 28.0397 20.0555 28.5555C19.5397 29.0712 19.25 29.7707 19.25 30.5C19.25 31.2293 19.5397 31.9288 20.0555 32.4445C20.5712 32.9603 21.2707 33.25 22 33.25H32.69L31.97 32.53C31.8963 32.4613 31.8372 32.3785 31.7962 32.2865C31.7552 32.1945 31.7332 32.0952 31.7314 31.9945C31.7296 31.8938 31.7482 31.7938 31.7859 31.7004C31.8236 31.607 31.8797 31.5222 31.951 31.451C32.0222 31.3797 32.107 31.3236 32.2004 31.2859C32.2938 31.2482 32.3938 31.2296 32.4945 31.2314C32.5952 31.2332 32.6945 31.2552 32.7865 31.2962C32.8785 31.3372 32.9613 31.3963 33.03 31.47L35.03 33.47C35.1705 33.6106 35.2493 33.8013 35.2493 34C35.2493 34.1988 35.1705 34.3894 35.03 34.53L33.03 36.53C32.9613 36.6037 32.8785 36.6628 32.7865 36.7038C32.6945 36.7448 32.5952 36.7668 32.4945 36.7686C32.3938 36.7704 32.2938 36.7518 32.2004 36.7141C32.107 36.6764 32.0222 36.6203 31.951 36.549C31.8797 36.4778 31.8236 36.393 31.7859 36.2996C31.7482 36.2062 31.7296 36.1062 31.7314 36.0055C31.7332 35.9048 31.7552 35.8055 31.7962 35.7135C31.8372 35.6215 31.8963 35.5387 31.97 35.47L32.69 34.75H22C20.8728 34.75 19.7918 34.3022 18.9948 33.5052C18.1978 32.7082 17.75 31.6272 17.75 30.5C17.75 29.3728 18.1978 28.2918 18.9948 27.4948C19.7918 26.6978 20.8728 26.25 22 26.25H31C31.7293 26.25 32.4288 25.9603 32.9445 25.4445C33.4603 24.9288 33.75 24.2293 33.75 23.5C33.75 22.7707 33.4603 22.0712 32.9445 21.5555C32.4288 21.0397 31.7293 20.75 31 20.75H22.355C22.1809 21.1803 21.8627 21.5366 21.4547 21.7579C21.0467 21.9793 20.5745 22.0518 20.1189 21.9632C19.6633 21.8745 19.2528 21.6302 18.9576 21.272C18.6624 20.9138 18.501 20.4641 18.501 20C18.501 19.5359 18.6624 19.0862 18.9576 18.728C19.2528 18.3698 19.6633 18.1255 20.1189 18.0368C20.5745 17.9482 21.0467 18.0207 21.4547 18.2421C21.8627 18.4634 22.1809 18.8197 22.355 19.25H31Z" fill="#E9ECF6"/>
</svg>
