<svg width="56" height="54" viewBox="0 0 56 54" fill="none" xmlns="http://www.w3.org/2000/svg">
<rect width="55.5" height="54" rx="27" fill="#0994DC"/>
<path d="M16.25 28.4C16.0333 28.25 15.9043 28.046 15.863 27.788C15.8217 27.53 15.8673 27.284 16 27.05L19.05 22.15C19.4167 21.5666 19.9377 21.2543 20.613 21.213C21.2883 21.1716 21.8423 21.409 22.275 21.925L23.5 23.35L25.875 19.5C26.2583 18.8666 26.8127 18.546 27.538 18.538C28.2633 18.53 28.8257 18.834 29.225 19.45L30.5 21.35L33.3 16.9C33.45 16.65 33.671 16.496 33.963 16.438C34.255 16.38 34.5173 16.4423 34.75 16.625C34.9667 16.775 35.096 16.9793 35.138 17.238C35.18 17.4966 35.134 17.7423 35 17.975L32.2 22.425C31.8167 23.0416 31.2627 23.35 30.538 23.35C29.8133 23.35 29.2507 23.05 28.85 22.45L27.575 20.55L25.2 24.4C24.85 24.9833 24.3377 25.3 23.663 25.35C22.9883 25.4 22.434 25.1666 22 24.65L20.75 23.2L17.7 28.125C17.55 28.375 17.329 28.5293 17.037 28.588C16.745 28.6466 16.4827 28.584 16.25 28.4ZM29 33C29.7 33 30.2917 32.7583 30.775 32.275C31.2583 31.7916 31.5 31.2 31.5 30.5C31.5 29.8 31.2583 29.2083 30.775 28.725C30.2917 28.2416 29.7 28 29 28C28.3 28 27.7083 28.2416 27.225 28.725C26.7417 29.2083 26.5 29.8 26.5 30.5C26.5 31.2 26.7417 31.7916 27.225 32.275C27.7083 32.7583 28.3 33 29 33ZM29 35C27.75 35 26.6873 34.5626 25.812 33.688C24.9367 32.8133 24.4993 31.7506 24.5 30.5C24.5007 29.2493 24.9383 28.187 25.813 27.313C26.6877 26.439 27.75 26.0013 29 26C30.25 25.9986 31.3127 26.4363 32.188 27.313C33.0633 28.1896 33.5007 29.252 33.5 30.5C33.5 30.9333 33.4417 31.3543 33.325 31.763C33.2083 32.1716 33.0333 32.5506 32.8 32.9L34.8 34.9C34.9833 35.0833 35.075 35.3166 35.075 35.6C35.075 35.8833 34.9833 36.1166 34.8 36.3C34.6167 36.4833 34.3833 36.575 34.1 36.575C33.8167 36.575 33.5833 36.4833 33.4 36.3L31.4 34.3C31.05 34.5333 30.671 34.7083 30.263 34.825C29.855 34.9416 29.434 35 29 35Z" fill="#E9ECF6"/>
</svg>
