<svg width="58" height="56" viewBox="0 0 58 56" fill="none" xmlns="http://www.w3.org/2000/svg">
<rect width="57.5" height="56" rx="28" fill="#0994DC"/>
<g clip-path="url(#clip0_395_233)">
<path d="M18.5 15V34C18.5 34.555 18.055 35 17.5 35C16.945 35 16.5 34.555 16.5 34V22H17.5V20H14.5V34C14.5 35.645 15.855 37 17.5 37H27.5C27.3 36.4 27.187 35.7 27.187 35H20.314C20.428 34.684 20.501 34.353 20.501 34V17H36.501V28C37.201 28.2 37.901 28.5 38.501 29V15H18.5ZM22.5 19V23H34.5V19H22.5ZM22.5 25V27H27.5V25H22.5ZM29.5 25V27H34.5V25H29.5ZM22.5 28V30H27.5V28H22.5ZM34.5 29C31.176 29 28.5 31.676 28.5 35C28.5 38.324 31.176 41 34.5 41V39C32.224 39 30.5 37.276 30.5 35C30.5 32.724 32.224 31 34.5 31C36.776 31 38.5 32.724 38.5 35C38.5 35.868 38.253 36.67 37.812 37.313L36.5 36L36 40.5L40.5 40L39.25 38.75C40.081 37.706 40.5 36.377 40.5 35C40.5 31.676 37.824 29 34.5 29ZM22.5 31V33H27.5V31H22.5Z" fill="#E9ECF6"/>
</g>
<defs>
<clipPath id="clip0_395_233">
<rect width="26" height="26" fill="white" transform="translate(14.5 15)"/>
</clipPath>
</defs>
</svg>
