<svg width="56" height="54" viewBox="0 0 56 54" fill="none" xmlns="http://www.w3.org/2000/svg">
<rect width="55.5" height="54" rx="27" fill="#0994DC"/>
<path d="M18.5 35V33H21.25L20.85 32.65C20.0333 31.8333 19.4377 30.946 19.063 29.988C18.6883 29.03 18.5007 28.0507 18.5 27.05C18.5 25.2 19.0543 23.5543 20.163 22.113C21.2717 20.6717 22.7173 19.7173 24.5 19.25V21.35C23.3 21.7833 22.3333 22.521 21.6 23.563C20.8667 24.605 20.5 25.7673 20.5 27.05C20.5 27.8 20.6417 28.5293 20.925 29.238C21.2083 29.9467 21.65 30.6007 22.25 31.2L22.5 31.45V29H24.5V35H18.5ZM28.5 34.75V32.65C29.7 32.2167 30.6667 31.4793 31.4 30.438C32.1333 29.3967 32.5 28.234 32.5 26.95C32.5 26.2 32.3583 25.471 32.075 24.763C31.7917 24.055 31.35 23.4007 30.75 22.8L30.5 22.55V25H28.5V19H34.5V21H31.75L32.15 21.35C32.9667 22.1667 33.5627 23.0543 33.938 24.013C34.3133 24.9717 34.5007 25.9507 34.5 26.95C34.5 28.8 33.946 30.446 32.838 31.888C31.73 33.33 30.284 34.284 28.5 34.75Z" fill="#E9ECF6"/>
</svg>
