<svg width="56" height="54" viewBox="0 0 56 54" fill="none" xmlns="http://www.w3.org/2000/svg">
<rect width="55.5" height="54" rx="27" fill="#0994DC"/>
<g clip-path="url(#clip0_398_1281)">
<path d="M30.25 22.5C31.0078 22.5 31.7383 22.5977 32.4414 22.793C33.1445 22.9883 33.8008 23.2656 34.4102 23.625C35.0195 23.9844 35.5781 24.4141 36.0859 24.9141C36.5938 25.4141 37.0234 25.9688 37.375 26.5781C37.7266 27.1875 38.0039 27.8477 38.207 28.5586C38.4102 29.2695 38.5078 30 38.5 30.75C38.5 31.5078 38.4023 32.2383 38.207 32.9414C38.0117 33.6445 37.7344 34.3008 37.375 34.9102C37.0156 35.5195 36.5859 36.0781 36.0859 36.5859C35.5859 37.0938 35.0312 37.5234 34.4219 37.875C33.8125 38.2266 33.1523 38.5039 32.4414 38.707C31.7305 38.9102 31 39.0078 30.25 39C29.4922 39 28.7617 38.9023 28.0586 38.707C27.3555 38.5117 26.6992 38.2344 26.0898 37.875C25.4805 37.5156 24.9219 37.0859 24.4141 36.5859C23.9062 36.0859 23.4766 35.5312 23.125 34.9219C22.7734 34.3125 22.4961 33.6523 22.293 32.9414C22.0898 32.2305 21.9922 31.5 22 30.75C22 30.5 22.0117 30.25 22.0352 30C20.9961 30 20.0195 29.8047 19.1055 29.4141C18.1914 29.0234 17.3945 28.4922 16.7148 27.8203C16.0352 27.1484 15.4961 26.3555 15.0977 25.4414C14.6992 24.5273 14.5 23.5469 14.5 22.5C14.5 21.8125 14.5898 21.1484 14.7695 20.5078C14.9492 19.8672 15.1992 19.2695 15.5195 18.7148C15.8398 18.1602 16.2305 17.6562 16.6914 17.2031C17.1523 16.75 17.6602 16.3594 18.2148 16.0312C18.7695 15.7031 19.3672 15.4492 20.0078 15.2695C20.6484 15.0898 21.3125 15 22 15C22.6953 15 23.3633 15.0898 24.0039 15.2695C24.6445 15.4492 25.2422 15.7031 25.7969 16.0312C26.3516 16.3594 26.8555 16.75 27.3086 17.2031C27.7617 17.6562 28.1523 18.1641 28.4805 18.7266C28.8086 19.2891 29.0586 19.8906 29.2305 20.5312C29.4023 21.1719 29.4922 21.8398 29.5 22.5352C29.7422 22.5117 29.9922 22.5 30.25 22.5ZM22 28.5C22.0547 28.5 22.1094 28.4961 22.1641 28.4883C22.2188 28.4805 22.2734 28.4727 22.3281 28.4648C22.4688 27.9727 22.6523 27.5039 22.8789 27.0586C23.1055 26.6133 23.375 26.1836 23.6875 25.7695C23.4141 25.6836 23.1367 25.6172 22.8555 25.5703C22.5742 25.5234 22.2891 25.5 22 25.5C21.5234 25.5 21.0586 25.5586 20.6055 25.6758C20.1523 25.793 19.7109 25.9609 19.2812 26.1797L18.6016 24.8438C19.1328 24.5781 19.6836 24.3711 20.2539 24.2227C20.8242 24.0742 21.4062 24 22 24C22.4844 24 22.957 24.0508 23.418 24.1523C23.8789 24.2539 24.3359 24.3945 24.7891 24.5742C25.25 24.168 25.7461 23.8164 26.2773 23.5195C26.8086 23.2227 27.3711 22.9922 27.9648 22.8281L27.9883 22.6641C27.9961 22.6094 28 22.5547 28 22.5C28 21.6719 27.8438 20.8945 27.5312 20.168C27.2188 19.4414 26.7891 18.8086 26.2422 18.2695C25.6953 17.7305 25.0586 17.3008 24.332 16.9805C23.6055 16.6602 22.8281 16.5 22 16.5C21.1719 16.5 20.3945 16.6562 19.668 16.9688C18.9414 17.2812 18.3086 17.7109 17.7695 18.2578C17.2305 18.8047 16.8008 19.4414 16.4805 20.168C16.1602 20.8945 16 21.6719 16 22.5C16 23.3281 16.1562 24.1055 16.4688 24.832C16.7812 25.5586 17.2109 26.1914 17.7578 26.7305C18.3047 27.2695 18.9414 27.6992 19.668 28.0195C20.3945 28.3398 21.1719 28.5 22 28.5ZM30.25 37.5C31.1797 37.5 32.0547 37.3242 32.875 36.9727C33.6953 36.6211 34.4102 36.1367 35.0195 35.5195C35.6289 34.9023 36.1094 34.1875 36.4609 33.375C36.8125 32.5625 36.9922 31.6875 37 30.75C37 29.8203 36.8242 28.9453 36.4727 28.125C36.1211 27.3047 35.6367 26.5898 35.0195 25.9805C34.4023 25.3711 33.6875 24.8906 32.875 24.5391C32.0625 24.1875 31.1875 24.0078 30.25 24C29.3203 24 28.4453 24.1758 27.625 24.5273C26.8047 24.8789 26.0898 25.3633 25.4805 25.9805C24.8711 26.5977 24.3906 27.3125 24.0391 28.125C23.6875 28.9375 23.5078 29.8125 23.5 30.75C23.5 31.6797 23.6758 32.5547 24.0273 33.375C24.3789 34.1953 24.8633 34.9102 25.4805 35.5195C26.0977 36.1289 26.8125 36.6094 27.625 36.9609C28.4375 37.3125 29.3125 37.4922 30.25 37.5ZM33.25 30.375C32.9375 30.375 32.6719 30.2656 32.4531 30.0469C32.2344 29.8281 32.125 29.5625 32.125 29.25C32.125 28.9375 32.2344 28.6719 32.4531 28.4531C32.6719 28.2344 32.9375 28.125 33.25 28.125C33.5625 28.125 33.8281 28.2344 34.0469 28.4531C34.2656 28.6719 34.375 28.9375 34.375 29.25C34.375 29.5625 34.2656 29.8281 34.0469 30.0469C33.8281 30.2656 33.5625 30.375 33.25 30.375ZM27.25 30.375C26.9375 30.375 26.6719 30.2656 26.4531 30.0469C26.2344 29.8281 26.125 29.5625 26.125 29.25C26.125 28.9375 26.2344 28.6719 26.4531 28.4531C26.6719 28.2344 26.9375 28.125 27.25 28.125C27.5625 28.125 27.8281 28.2344 28.0469 28.4531C28.2656 28.6719 28.375 28.9375 28.375 29.25C28.375 29.5625 28.2656 29.8281 28.0469 30.0469C27.8281 30.2656 27.5625 30.375 27.25 30.375ZM30.25 34.5C30.5859 34.5 30.9141 34.457 31.2344 34.3711C31.5547 34.2852 31.8555 34.1562 32.1367 33.9844C32.418 33.8125 32.6758 33.6094 32.9102 33.375C33.1445 33.1406 33.3438 32.875 33.5078 32.5781L34.8086 33.3164C34.5742 33.7305 34.293 34.1016 33.9648 34.4297C33.6367 34.7578 33.2773 35.0391 32.8867 35.2734C32.4961 35.5078 32.0781 35.6875 31.6328 35.8125C31.1875 35.9375 30.7266 36 30.25 36C29.7734 36 29.3125 35.9375 28.8672 35.8125C28.4219 35.6875 28.0039 35.5117 27.6133 35.2852C27.2227 35.0586 26.8633 34.7773 26.5352 34.4414C26.207 34.1055 25.9258 33.7305 25.6914 33.3164L26.9922 32.5781C27.1562 32.875 27.3555 33.1406 27.5898 33.375C27.8242 33.6094 28.082 33.8086 28.3633 33.9727C28.6445 34.1367 28.9414 34.2656 29.2539 34.3594C29.5664 34.4531 29.8984 34.5 30.25 34.5ZM19.75 21.1875C19.4922 21.1875 19.2734 21.0977 19.0938 20.918C18.9141 20.7383 18.8203 20.5156 18.8125 20.25C18.8125 19.9922 18.9023 19.7734 19.082 19.5938C19.2617 19.4141 19.4844 19.3203 19.75 19.3125C20.0078 19.3125 20.2266 19.4023 20.4062 19.582C20.5859 19.7617 20.6797 19.9844 20.6875 20.25C20.6875 20.5078 20.5977 20.7266 20.418 20.9062C20.2383 21.0859 20.0156 21.1797 19.75 21.1875ZM24.25 21.1875C23.9922 21.1875 23.7734 21.0977 23.5938 20.918C23.4141 20.7383 23.3203 20.5156 23.3125 20.25C23.3125 19.9922 23.4023 19.7734 23.582 19.5938C23.7617 19.4141 23.9844 19.3203 24.25 19.3125C24.5078 19.3125 24.7266 19.4023 24.9062 19.582C25.0859 19.7617 25.1797 19.9844 25.1875 20.25C25.1875 20.5078 25.0977 20.7266 24.918 20.9062C24.7383 21.0859 24.5156 21.1797 24.25 21.1875Z" fill="#E9ECF6"/>
</g>
<defs>
<clipPath id="clip0_398_1281">
<rect width="24" height="24" fill="white" transform="translate(14.5 15)"/>
</clipPath>
</defs>
</svg>
