<svg width="56" height="54" viewBox="0 0 56 54" fill="none" xmlns="http://www.w3.org/2000/svg">
<rect width="55.5" height="54" rx="27" fill="#0994DC"/>
<path d="M30.45 27.3L26.2 23.05C26.1 22.95 26.0293 22.8417 25.988 22.725C25.9467 22.6083 25.9257 22.4833 25.925 22.35C25.9243 22.2167 25.9453 22.0917 25.988 21.975C26.0307 21.8583 26.1013 21.75 26.2 21.65L30.45 17.4C30.55 17.3 30.6583 17.2293 30.775 17.188C30.8917 17.1467 31.0167 17.1257 31.15 17.125C31.2833 17.1243 31.4083 17.1453 31.525 17.188C31.6417 17.2307 31.75 17.3013 31.85 17.4L36.1 21.65C36.2 21.75 36.271 21.8583 36.313 21.975C36.355 22.0917 36.3757 22.2167 36.375 22.35C36.3743 22.4833 36.3537 22.6083 36.313 22.725C36.2723 22.8417 36.2013 22.95 36.1 23.05L31.85 27.3C31.75 27.4 31.6417 27.471 31.525 27.513C31.4083 27.555 31.2833 27.5757 31.15 27.575C31.0167 27.5743 30.8917 27.5537 30.775 27.513C30.6583 27.4723 30.55 27.4013 30.45 27.3ZM17.5 25V19C17.5 18.7167 17.596 18.4793 17.788 18.288C17.98 18.0967 18.2173 18.0007 18.5 18H24.5C24.7833 18 25.021 18.096 25.213 18.288C25.405 18.48 25.5007 18.7173 25.5 19V25C25.5 25.2833 25.404 25.521 25.212 25.713C25.02 25.905 24.7827 26.0007 24.5 26H18.5C18.2167 26 17.9793 25.904 17.788 25.712C17.5967 25.52 17.5007 25.2827 17.5 25ZM27.5 35V29C27.5 28.7167 27.596 28.4793 27.788 28.288C27.98 28.0967 28.2173 28.0007 28.5 28H34.5C34.7833 28 35.021 28.096 35.213 28.288C35.405 28.48 35.5007 28.7173 35.5 29V35C35.5 35.2833 35.404 35.521 35.212 35.713C35.02 35.905 34.7827 36.0007 34.5 36H28.5C28.2167 36 27.9793 35.904 27.788 35.712C27.5967 35.52 27.5007 35.2827 27.5 35ZM17.5 35V29C17.5 28.7167 17.596 28.4793 17.788 28.288C17.98 28.0967 18.2173 28.0007 18.5 28H24.5C24.7833 28 25.021 28.096 25.213 28.288C25.405 28.48 25.5007 28.7173 25.5 29V35C25.5 35.2833 25.404 35.521 25.212 35.713C25.02 35.905 24.7827 36.0007 24.5 36H18.5C18.2167 36 17.9793 35.904 17.788 35.712C17.5967 35.52 17.5007 35.2827 17.5 35ZM19.5 24H23.5V20H19.5V24ZM31.175 25.2L34 22.375L31.175 19.55L28.35 22.375L31.175 25.2ZM29.5 34H33.5V30H29.5V34ZM19.5 34H23.5V30H19.5V34Z" fill="#E9ECF6"/>
</svg>
