<svg width="56" height="54" viewBox="0 0 56 54" fill="none" xmlns="http://www.w3.org/2000/svg">
<rect width="55.5" height="54" rx="27" fill="#0994DC"/>
<path d="M19.643 29C18.8927 27.7712 18.4971 26.3588 18.5 24.919C18.5 20.545 22.082 17 26.5 17C30.918 17 34.5 20.545 34.5 24.919C34.503 26.3588 34.1074 27.7712 33.357 29" stroke="#E9ECF6" stroke-width="1.5" stroke-linecap="round"/>
<path d="M29.5004 34L29.3704 34.647C29.2304 35.354 29.1594 35.707 29.0004 35.987C28.7554 36.4186 28.3587 36.7436 27.8874 36.899C27.5824 37 27.2204 37 26.5004 37C25.7804 37 25.4184 37 25.1134 36.9C24.6419 36.7444 24.2452 36.4189 24.0004 35.987C23.8414 35.707 23.7704 35.354 23.6304 34.647L23.5004 34M21.8834 32.098C21.7914 31.822 21.7454 31.683 21.7504 31.571C21.756 31.4552 21.7951 31.3435 21.8629 31.2494C21.9307 31.1554 22.0243 31.083 22.1324 31.041C22.2364 31 22.3824 31 22.6724 31H30.3284C30.6194 31 30.7644 31 30.8684 31.04C30.9766 31.0821 31.0703 31.1546 31.1381 31.2489C31.2059 31.3431 31.2449 31.455 31.2504 31.571C31.2554 31.683 31.2094 31.821 31.1174 32.098C30.9474 32.609 30.8624 32.865 30.7314 33.072C30.4574 33.5046 30.0279 33.8156 29.5314 33.941C29.2934 34 29.0254 34 28.4884 34H24.5124C23.9754 34 23.7064 34 23.4694 33.94C22.973 33.8149 22.5436 33.5042 22.2694 33.072C22.1384 32.865 22.0534 32.609 21.8834 32.098Z" stroke="#E9ECF6" stroke-width="1.5"/>
<path d="M22.75 24.75L25 27V31M30.25 24.75L28 27V31M22.75 25.5C22.9489 25.5 23.1397 25.421 23.2803 25.2803C23.421 25.1397 23.5 24.9489 23.5 24.75C23.5 24.5511 23.421 24.3603 23.2803 24.2197C23.1397 24.079 22.9489 24 22.75 24C22.5511 24 22.3603 24.079 22.2197 24.2197C22.079 24.3603 22 24.5511 22 24.75C22 24.9489 22.079 25.1397 22.2197 25.2803C22.3603 25.421 22.5511 25.5 22.75 25.5ZM30.25 25.5C30.0511 25.5 29.8603 25.421 29.7197 25.2803C29.579 25.1397 29.5 24.9489 29.5 24.75C29.5 24.5511 29.579 24.3603 29.7197 24.2197C29.8603 24.079 30.0511 24 30.25 24C30.4489 24 30.6397 24.079 30.7803 24.2197C30.921 24.3603 31 24.5511 31 24.75C31 24.9489 30.921 25.1397 30.7803 25.2803C30.6397 25.421 30.4489 25.5 30.25 25.5Z" stroke="#E9ECF6" stroke-width="1.5" stroke-linecap="round" stroke-linejoin="round"/>
</svg>
