<svg width="56" height="54" viewBox="0 0 56 54" fill="none" xmlns="http://www.w3.org/2000/svg">
<rect width="55.5" height="54" rx="27" fill="#0994DC"/>
<path d="M34.6725 21.7499H32.8115L28.2455 26.3139C28.4027 26.7147 28.4172 27.1574 28.2864 27.5676C28.1557 27.9778 27.8876 28.3305 27.5274 28.5663C27.1672 28.8021 26.7368 28.9067 26.3085 28.8625C25.8803 28.8183 25.4803 28.628 25.1758 28.3235C24.8714 28.0191 24.6811 27.6191 24.6369 27.1908C24.5927 26.7626 24.6973 26.3322 24.9331 25.9719C25.1689 25.6117 25.5216 25.3437 25.9318 25.2129C26.342 25.0822 26.7847 25.0966 27.1855 25.2539L31.7505 20.6889V18.8279C31.7506 18.5789 31.8495 18.3401 32.0255 18.1639L33.7555 16.4339C33.7875 16.4017 33.8277 16.3788 33.8717 16.3677C33.9158 16.3566 33.962 16.3577 34.0055 16.3709C34.0945 16.3969 34.1605 16.4709 34.1785 16.5619L34.6385 18.8629L36.9385 19.3229C37.0285 19.3409 37.1025 19.4069 37.1285 19.4959C37.1416 19.5391 37.1428 19.5851 37.1319 19.629C37.1209 19.6728 37.0983 19.7129 37.0665 19.7449L35.3355 21.4749C35.1595 21.6507 34.9211 21.7495 34.6725 21.7499Z" fill="#E9ECF6"/>
<path d="M17.125 27C17.125 29.4864 18.1127 31.871 19.8709 33.6291C21.629 35.3873 24.0136 36.375 26.5 36.375C27.7311 36.375 28.9502 36.1325 30.0877 35.6614C31.2251 35.1902 32.2586 34.4997 33.1291 33.6291C33.9997 32.7586 34.6902 31.7251 35.1614 30.5877C35.6325 29.4502 35.875 28.2311 35.875 27C35.875 26.102 35.749 25.234 35.514 24.413C35.4673 24.2245 35.4955 24.0252 35.5928 23.8571C35.69 23.689 35.8487 23.5651 36.0353 23.5116C36.222 23.4581 36.4222 23.4791 36.5937 23.5702C36.7653 23.6613 36.8948 23.8154 36.955 24C37.229 24.954 37.375 25.96 37.375 27C37.375 33.006 32.506 37.875 26.5 37.875C20.494 37.875 15.625 33.006 15.625 27C15.625 20.994 20.494 16.125 26.5 16.125C27.515 16.124 28.524 16.265 29.5 16.544C29.5952 16.5707 29.6841 16.6159 29.7617 16.6771C29.8393 16.7383 29.9041 16.8142 29.9523 16.9005C30.0005 16.9868 30.0311 17.0818 30.0425 17.18C30.0538 17.2782 30.0457 17.3776 30.0184 17.4726C29.9912 17.5677 29.9455 17.6564 29.8839 17.7336C29.8223 17.8109 29.746 17.8753 29.6595 17.923C29.5729 17.9707 29.4778 18.0008 29.3795 18.0116C29.2813 18.0224 29.1819 18.0137 29.087 17.986C28.2457 17.7459 27.3749 17.6244 26.5 17.625C24.0136 17.625 21.629 18.6127 19.8709 20.3709C18.1127 22.129 17.125 24.5136 17.125 27Z" fill="#E9ECF6"/>
<path d="M21.6247 27C21.6275 27.6624 21.7653 28.3172 22.0296 28.9245C22.2939 29.5318 22.6792 30.0788 23.162 30.5323C23.6448 30.9857 24.2149 31.336 24.8376 31.5617C25.4603 31.7874 26.1224 31.8839 26.7836 31.8452C27.4448 31.8064 28.0912 31.6334 28.6833 31.3365C29.2753 31.0396 29.8007 30.6252 30.2273 30.1186C30.6538 29.6119 30.9727 29.0236 31.1643 28.3896C31.3559 27.7556 31.4163 27.0892 31.3417 26.431C31.3207 26.2977 31.3362 26.1613 31.3864 26.036C31.4367 25.9108 31.5199 25.8015 31.6272 25.7197C31.7345 25.6379 31.862 25.5867 31.996 25.5714C32.1301 25.5562 32.2658 25.5775 32.3887 25.633C32.6397 25.745 32.8087 25.984 32.8307 26.258C32.986 27.5733 32.7277 28.9042 32.0916 30.0659C31.4556 31.2275 30.4734 32.1622 29.2817 32.7399C28.09 33.3176 26.7479 33.5097 25.4419 33.2895C24.136 33.0692 22.9311 32.4476 21.9947 31.511C21.0586 30.5755 20.4369 29.3718 20.2157 28.0669C19.9945 26.7621 20.1848 25.4207 20.7603 24.2289C21.3357 23.0371 22.2678 22.0539 23.4272 21.4156C24.5866 20.7774 25.9159 20.5158 27.2307 20.667C27.3301 20.6763 27.4267 20.7052 27.5147 20.7523C27.6028 20.7993 27.6806 20.8634 27.7435 20.9409C27.8065 21.0183 27.8533 21.1076 27.8813 21.2034C27.9093 21.2992 27.9179 21.3997 27.9066 21.4988C27.8953 21.598 27.8643 21.6939 27.8154 21.781C27.7666 21.868 27.7008 21.9444 27.622 22.0057C27.5432 22.067 27.453 22.112 27.3566 22.138C27.2603 22.164 27.1597 22.1704 27.0607 22.157C26.3778 22.0781 25.6858 22.1444 25.0303 22.3518C24.3748 22.5591 23.7705 22.9027 23.2572 23.3601C22.7438 23.8174 22.333 24.3781 22.0517 25.0055C21.7703 25.6328 21.6248 26.3125 21.6247 27Z" fill="#E9ECF6"/>
</svg>
