<svg width="56" height="54" viewBox="0 0 56 54" fill="none" xmlns="http://www.w3.org/2000/svg">
<rect width="55.5" height="54" rx="27" fill="#0994DC"/>
<g clip-path="url(#clip0_200_5417)">
<path fill-rule="evenodd" clip-rule="evenodd" d="M33.881 15.9005C33.407 15.0335 32.1615 15.0335 31.6875 15.9005L30.689 17.727C30.4828 18.1047 30.1725 18.4153 29.795 18.622L27.969 19.621C27.1025 20.095 27.1025 21.34 27.969 21.814L29.795 22.8135C30.1724 23.0201 30.4827 23.3305 30.689 23.708L31.6875 25.5345C32.1615 26.4015 33.4075 26.4015 33.881 25.5345L34.8795 23.708C35.0858 23.3303 35.3961 23.0197 35.7735 22.813L37.5995 21.814C38.466 21.34 38.466 20.0955 37.5995 19.621L35.7735 18.622C35.3961 18.4153 35.0858 18.1047 34.8795 17.727L33.881 15.9005ZM19.555 35.3475C19.2875 35.207 19.0506 35.0146 18.8582 34.7815C18.6658 34.5484 18.5218 34.2794 18.4345 33.99C18.2896 33.5194 18.1545 33.0458 18.0295 32.5695C17.0004 31.6996 16.1736 30.6154 15.607 29.3928C15.0403 28.1702 14.7475 26.8385 14.749 25.491C14.749 20.3705 18.8975 16.2185 24.0165 16.2185C24.5855 16.2185 25.144 16.27 25.686 16.3685C25.947 16.416 26.1784 16.5653 26.3293 16.7835C26.4802 17.0016 26.5383 17.2708 26.4908 17.5317C26.4432 17.7927 26.294 18.0241 26.0758 18.175C25.8577 18.326 25.5885 18.384 25.3275 18.3365C24.895 18.2578 24.4562 18.2183 24.0165 18.2185C20.0035 18.2185 16.749 21.4735 16.749 25.491C16.7479 26.5943 16.9982 27.6834 17.4811 28.6755C17.9639 29.6676 18.6665 30.5366 19.5355 31.2165C19.7108 31.3542 19.8351 31.5466 19.8885 31.763C20.0264 32.3137 20.1791 32.8606 20.3465 33.403C20.386 33.532 20.4725 33.585 20.5515 33.593C21.1895 33.66 22.297 33.7365 24.0165 33.7365C25.736 33.7365 26.8435 33.66 27.4815 33.593C27.5605 33.585 27.647 33.5315 27.6865 33.403C27.8542 32.8606 28.0069 32.3138 28.1445 31.763C28.198 31.5466 28.3222 31.3542 28.4975 31.2165C29.3559 30.5433 30.0525 29.6863 30.536 28.7085C30.656 28.4751 30.8629 28.2982 31.1121 28.216C31.3614 28.1338 31.6329 28.1529 31.8682 28.2691C32.1035 28.3853 32.2837 28.5893 32.3699 28.8372C32.4561 29.085 32.4414 29.3569 32.329 29.594C31.7653 30.7343 30.9737 31.7468 30.003 32.569C29.8782 33.0453 29.7433 33.5189 29.5985 33.9895C29.4242 34.5659 29.029 35.05 28.499 35.336L28.3855 36.3845C28.268 37.468 27.4915 38.451 26.3025 38.607C25.5367 38.704 24.7655 38.7516 23.9935 38.7495C23.007 38.7495 22.242 38.6785 21.68 38.5935C20.645 38.437 19.9645 37.6145 19.7915 36.6925C19.7074 36.2451 19.6288 35.7968 19.5555 35.3475" fill="#E9ECF6"/>
</g>
<defs>
<clipPath id="clip0_200_5417">
<rect width="24" height="24" fill="white" transform="translate(14.5 15)"/>
</clipPath>
</defs>
</svg>
