<svg width="56" height="54" viewBox="0 0 56 54" fill="none" xmlns="http://www.w3.org/2000/svg">
<rect width="55.5" height="54" rx="27" fill="#0994DC"/>
<path d="M16.5946 26.0865C16.5826 25.9484 16.5994 25.8094 16.644 25.6782C16.6886 25.5469 16.76 25.4264 16.8537 25.3243C16.9473 25.2221 17.0612 25.1405 17.1881 25.0847C17.3149 25.0289 17.452 25 17.5906 25H19.5001C19.7653 25 20.0196 25.1054 20.2072 25.2929C20.3947 25.4804 20.5001 25.7348 20.5001 26V35.5C20.5001 35.7652 20.3947 36.0196 20.2072 36.2071C20.0196 36.3946 19.7653 36.5 19.5001 36.5H18.4171C18.1668 36.5001 17.9256 36.4063 17.7411 36.2371C17.5566 36.068 17.4422 35.8358 17.4206 35.5865L16.5946 26.0865ZM23.5001 25.6875C23.5001 25.2695 23.7601 24.8955 24.1376 24.7175C24.9621 24.3285 26.3666 23.547 27.0001 22.4905C27.8166 21.1285 27.9706 18.668 27.9956 18.1045C27.9991 18.0255 27.9971 17.9465 28.0076 17.8685C28.1431 16.892 30.0276 18.0325 30.7501 19.2385C31.1426 19.8925 31.1926 20.752 31.1516 21.4235C31.1071 22.1415 30.8966 22.835 30.6901 23.524L30.2501 24.9925H35.6786C35.8331 24.9925 35.9855 25.0283 36.1238 25.0971C36.2622 25.1658 36.3827 25.2658 36.476 25.3889C36.5692 25.5121 36.6326 25.6553 36.6613 25.8071C36.6899 25.9589 36.683 26.1153 36.6411 26.264L33.9561 35.772C33.8968 35.9817 33.7706 36.1663 33.5968 36.2977C33.423 36.4291 33.211 36.5001 32.9931 36.5H24.5001C24.2349 36.5 23.9805 36.3946 23.793 36.2071C23.6054 36.0196 23.5001 35.7652 23.5001 35.5V25.6875Z" stroke="#E9ECF6" stroke-width="2" stroke-linecap="round" stroke-linejoin="round"/>
</svg>
