<svg width="56" height="54" viewBox="0 0 56 54" fill="none" xmlns="http://www.w3.org/2000/svg">
<rect width="55.5" height="54" rx="27" fill="#0994DC"/>
<path d="M24.95 30.5C25.35 30.9 25.8667 31.096 26.5 31.088C27.1333 31.08 27.6 30.8507 27.9 30.4L32.125 24.075C32.275 23.8417 32.2543 23.629 32.063 23.437C31.8717 23.245 31.659 23.2243 31.425 23.375L25.1 27.6C24.65 27.9 24.4127 28.3583 24.388 28.975C24.3633 29.5917 24.5507 30.1 24.95 30.5ZM26.5 19C27.1 19 27.6917 19.05 28.275 19.15C28.8583 19.25 29.425 19.4083 29.975 19.625C30.2417 19.725 30.525 19.9127 30.825 20.188C31.125 20.4633 31.2083 20.7257 31.075 20.975C30.9417 21.2243 30.6417 21.391 30.175 21.475C29.7083 21.559 29.3333 21.5507 29.05 21.45C28.6333 21.3 28.2127 21.1877 27.788 21.113C27.3633 21.0383 26.934 21.0007 26.5 21C24.2833 21 22.3957 21.7793 20.837 23.338C19.2783 24.8967 18.4993 26.784 18.5 29C18.5 29.7 18.596 30.3917 18.788 31.075C18.98 31.7583 19.2507 32.4 19.6 33H33.4C33.7833 32.3667 34.0627 31.7083 34.238 31.025C34.4133 30.3417 34.5007 29.6333 34.5 28.9C34.5 28.4667 34.4623 28.0417 34.387 27.625C34.3117 27.2083 34.1993 26.8 34.05 26.4C33.95 26.1167 33.9333 25.8417 34 25.575C34.0667 25.3083 34.2167 25.0833 34.45 24.9C34.6667 24.7333 34.9043 24.6833 35.163 24.75C35.4217 24.8167 35.6007 24.9667 35.7 25.2C35.95 25.7833 36.1417 26.3793 36.275 26.988C36.4083 27.5967 36.4833 28.2173 36.5 28.85C36.5167 29.8 36.4083 30.7083 36.175 31.575C35.9417 32.4417 35.6 33.2667 35.15 34.05C34.9667 34.35 34.7167 34.5833 34.4 34.75C34.0833 34.9167 33.75 35 33.4 35H19.6C19.25 35 18.9167 34.9167 18.6 34.75C18.2833 34.5833 18.0333 34.35 17.85 34.05C17.4167 33.3 17.0833 32.5043 16.85 31.663C16.6167 30.8217 16.5 29.934 16.5 29C16.5 27.6167 16.7627 26.321 17.288 25.113C17.8133 23.905 18.53 22.8467 19.438 21.938C20.346 21.0293 21.4083 20.3127 22.625 19.788C23.8417 19.2633 25.1333 19.0007 26.5 19Z" fill="#E9ECF6"/>
</svg>
